<svg width="319" height="471" viewBox="0 0 319 471" fill="none" xmlns="http://www.w3.org/2000/svg">
<path d="M0.904541 181.828C0.904541 94.0715 72.0453 22.9307 159.802 22.9307C247.559 22.9307 318.699 94.0715 318.699 181.828V311.54C318.699 399.297 247.559 470.438 159.802 470.438C72.0453 470.438 0.904541 399.297 0.904541 311.54V181.828Z" fill="white"/>
<path d="M120.888 163.993C120.888 177.425 109.999 188.314 96.5673 188.314C83.1351 188.314 72.2462 177.425 72.2462 163.993C72.2462 150.561 83.1351 139.672 96.5673 139.672C109.999 139.672 120.888 150.561 120.888 163.993Z" fill="#1C4572"/>
<path d="M247.358 163.993C247.358 177.425 236.469 188.314 223.037 188.314C209.604 188.314 198.716 177.425 198.716 163.993C198.716 150.561 209.604 139.672 223.037 139.672C236.469 139.672 247.358 150.561 247.358 163.993Z" fill="#1C4572"/>
<path fill-rule="evenodd" clip-rule="evenodd" d="M1.48096 315.458C8.40191 396.827 76.6409 460.71 159.801 460.71C242.872 460.71 311.054 396.962 318.098 315.718C308.319 314.447 298.078 317.568 290.566 325.08L287.891 327.755C273.564 342.082 250.334 342.082 236.007 327.755C221.679 313.427 198.449 313.427 184.122 327.755C169.794 342.082 146.564 342.082 132.237 327.755C117.909 313.427 94.6795 313.427 80.3519 327.755C66.0243 342.082 42.7946 342.082 28.467 327.755L25.7921 325.08C19.1015 318.389 10.2465 315.182 1.48096 315.458Z" fill="#E4E4E4"/>
<path fill-rule="evenodd" clip-rule="evenodd" d="M1.48096 325.187C8.40191 406.555 76.6409 470.438 159.801 470.438C242.872 470.438 311.054 406.691 318.098 325.446C308.319 324.175 298.078 327.296 290.566 334.808L287.891 337.483C273.564 351.811 250.334 351.811 236.007 337.483C221.679 323.155 198.449 323.155 184.122 337.483C169.794 351.811 146.564 351.811 132.237 337.483C117.909 323.155 94.6795 323.155 80.3519 337.483C66.0243 351.811 42.7946 351.811 28.467 337.483L25.7921 334.808C19.1015 328.118 10.2465 324.91 1.48096 325.187Z" fill="#211000"/>
<path d="M149.473 248.335C140.804 232.847 134.636 219.883 128.371 202.695C125.626 195.166 127.415 186.694 132.67 180.643C146.891 164.267 172.513 164.038 186.734 180.414L187.358 181.131C192.416 186.956 194.226 194.977 191.849 202.316C186.139 219.943 180.223 233.128 170.857 248.78C165.957 256.97 154.135 256.662 149.473 248.335Z" fill="#FAA419"/>
<path d="M144.116 199.163C144.941 203.549 144.133 207.435 142.311 207.843C140.489 208.252 138.343 205.027 137.518 200.641C136.692 196.255 137.5 192.369 139.322 191.961C141.144 191.553 143.291 194.777 144.116 199.163Z" fill="#3E1E00"/>
<path d="M176.159 199.163C175.334 203.549 176.142 207.435 177.964 207.843C179.786 208.252 181.932 205.027 182.758 200.641C183.583 196.255 182.775 192.369 180.953 191.961C179.131 191.553 176.985 194.777 176.159 199.163Z" fill="#3E1E00"/>
<path fill-rule="evenodd" clip-rule="evenodd" d="M185.869 5.80783C190.848 12.145 189.747 21.3187 183.41 26.2979L160.71 44.1333C154.373 49.1125 145.199 48.0117 140.22 41.6745C135.241 35.3374 136.342 26.1636 142.679 21.1845L165.379 3.34902C171.716 -1.63018 180.89 -0.52933 185.869 5.80783Z" fill="white"/>
<path fill-rule="evenodd" clip-rule="evenodd" d="M218.297 5.80783C223.276 12.145 222.175 21.3187 215.838 26.2979L193.138 44.1333C186.801 49.1125 177.628 48.0117 172.648 41.6745C167.669 35.3374 168.77 26.1636 175.107 21.1845L197.807 3.34902C204.144 -1.63018 213.318 -0.52933 218.297 5.80783Z" fill="white"/>
</svg>
