<svg width="319" height="471" viewBox="0 0 319 471" fill="none" xmlns="http://www.w3.org/2000/svg">
<path d="M0.904541 181.596C0.904541 93.839 72.0453 22.6982 159.802 22.6982C247.559 22.6982 318.699 93.8391 318.699 181.596V311.308C318.699 399.065 247.559 470.205 159.802 470.205C72.0453 470.205 0.904541 399.065 0.904541 311.308V181.596Z" fill="white"/>
<path d="M120.888 163.76C120.888 177.193 109.999 188.082 96.5673 188.082C83.1351 188.082 72.2462 177.193 72.2462 163.76C72.2462 150.328 83.1351 139.439 96.5673 139.439C109.999 139.439 120.888 150.328 120.888 163.76Z" fill="#1C4572"/>
<path d="M247.358 163.76C247.358 177.193 236.469 188.082 223.036 188.082C209.604 188.082 198.715 177.193 198.715 163.76C198.715 150.328 209.604 139.439 223.036 139.439C236.469 139.439 247.358 150.328 247.358 163.76Z" fill="#1C4572"/>
<path fill-rule="evenodd" clip-rule="evenodd" d="M1.48059 315.226C8.40155 396.594 76.6406 460.477 159.8 460.477C242.872 460.477 311.054 396.73 318.098 315.485C308.319 314.214 298.078 317.335 290.566 324.847L287.891 327.522C273.563 341.85 250.334 341.85 236.006 327.522C221.679 313.194 198.449 313.194 184.121 327.522C169.794 341.85 146.564 341.85 132.236 327.522C117.909 313.194 94.6791 313.194 80.3515 327.522C66.0239 341.85 42.7943 341.85 28.4667 327.522L25.7918 324.847C19.1012 318.157 10.2462 314.95 1.48059 315.226Z" fill="#E4E4E4"/>
<path fill-rule="evenodd" clip-rule="evenodd" d="M1.48059 324.954C8.40155 406.323 76.6406 470.206 159.8 470.206C242.872 470.206 311.054 406.458 318.098 325.214C308.319 323.943 298.078 327.064 290.566 334.576L287.891 337.251C273.563 351.578 250.334 351.578 236.006 337.251C221.679 322.923 198.449 322.923 184.121 337.251C169.794 351.578 146.564 351.578 132.236 337.251C117.909 322.923 94.6791 322.923 80.3515 337.251C66.0239 351.578 42.7943 351.578 28.4667 337.251L25.7918 334.576C19.1012 327.885 10.2462 324.678 1.48059 324.954Z" fill="#211000"/>
<path d="M149.473 248.102C140.804 232.614 134.635 219.65 128.37 202.462C125.626 194.933 127.415 186.461 132.67 180.411C146.891 164.035 172.513 163.805 186.734 180.181L187.358 180.899C192.416 186.724 194.226 194.744 191.849 202.083C186.139 219.71 180.222 232.895 170.857 248.548C165.957 256.737 154.135 256.429 149.473 248.102Z" fill="#FAA419"/>
<path d="M144.116 198.931C144.941 203.317 144.133 207.203 142.311 207.611C140.489 208.019 138.343 204.794 137.517 200.408C136.692 196.022 137.5 192.136 139.322 191.728C141.144 191.32 143.29 194.545 144.116 198.931Z" fill="#3E1E00"/>
<path d="M176.159 198.931C175.334 203.317 176.142 207.203 177.964 207.611C179.786 208.019 181.932 204.794 182.758 200.408C183.583 196.022 182.775 192.136 180.953 191.728C179.131 191.32 176.985 194.545 176.159 198.931Z" fill="#3E1E00"/>
<path d="M64.5964 140.615L59.2749 158.896L75.6829 152.654L100.96 138.385L111.16 128.576L96.0821 123.225L81.0045 128.576L64.5964 140.615Z" fill="white"/>
<path fill-rule="evenodd" clip-rule="evenodd" d="M116.645 131.599C117.679 133.192 117.226 135.322 115.633 136.356C106.801 142.089 83.3639 154.515 59.6016 158.644C57.7302 158.969 55.9495 157.715 55.6243 155.844C55.2992 153.972 56.5526 152.192 58.424 151.867C80.9538 147.952 103.51 136.025 111.888 130.587C113.481 129.552 115.611 130.006 116.645 131.599Z" fill="#E4E4E4"/>
<path d="M250.859 140.615L256.18 158.896L239.772 152.654L214.495 138.385L204.295 128.576L219.373 123.225L234.451 128.576L250.859 140.615Z" fill="white"/>
<path fill-rule="evenodd" clip-rule="evenodd" d="M198.81 131.599C197.776 133.192 198.229 135.322 199.822 136.356C208.654 142.089 232.091 154.515 255.854 158.644C257.725 158.969 259.506 157.715 259.831 155.844C260.156 153.972 258.902 152.192 257.031 151.867C234.501 147.952 211.946 136.025 203.567 130.587C201.974 129.552 199.844 130.006 198.81 131.599Z" fill="#E4E4E4"/>
<path opacity="0.6" d="M108.415 179.021C108.415 182.692 103.951 185.668 98.4443 185.668C92.9376 185.668 88.4736 182.692 88.4736 179.021C88.4736 175.35 92.9376 172.374 98.4443 172.374C103.951 172.374 108.415 175.35 108.415 179.021Z" fill="white"/>
<path opacity="0.6" d="M85.1503 175.698C85.1503 177.533 83.6623 179.021 81.8267 179.021C79.9912 179.021 78.5032 177.533 78.5032 175.698C78.5032 173.862 79.9912 172.374 81.8267 172.374C83.6623 172.374 85.1503 173.862 85.1503 175.698Z" fill="white"/>
<path opacity="0.6" d="M210.503 179.021C210.503 182.692 214.967 185.668 220.474 185.668C225.98 185.668 230.444 182.692 230.444 179.021C230.444 175.35 225.98 172.374 220.474 172.374C214.967 172.374 210.503 175.35 210.503 179.021Z" fill="white"/>
<path opacity="0.6" d="M233.768 175.698C233.768 177.533 235.256 179.021 237.091 179.021C238.927 179.021 240.415 177.533 240.415 175.698C240.415 173.862 238.927 172.374 237.091 172.374C235.256 172.374 233.768 173.862 233.768 175.698Z" fill="white"/>
<path fill-rule="evenodd" clip-rule="evenodd" d="M185.869 5.57541C190.848 11.9126 189.747 21.0863 183.41 26.0655L160.71 43.9009C154.373 48.8801 145.199 47.7793 140.22 41.4421C135.241 35.1049 136.342 25.9312 142.679 20.952L165.378 3.1166C171.716 -1.8626 180.889 -0.761752 185.869 5.57541Z" fill="white"/>
<path fill-rule="evenodd" clip-rule="evenodd" d="M218.297 5.57541C223.276 11.9126 222.175 21.0863 215.838 26.0655L193.138 43.9009C186.801 48.8801 177.627 47.7793 172.648 41.4421C167.669 35.1049 168.77 25.9312 175.107 20.952L197.807 3.1166C204.144 -1.8626 213.318 -0.761752 218.297 5.57541Z" fill="white"/>
</svg>
