<svg width="319" height="471" viewBox="0 0 319 471" fill="none" xmlns="http://www.w3.org/2000/svg">
<path d="M0.904663 181.712C0.904663 93.9553 72.0455 22.8145 159.802 22.8145C247.559 22.8145 318.7 93.9553 318.7 181.712V311.424C318.7 399.181 247.559 470.322 159.802 470.322C72.0455 470.322 0.904663 399.181 0.904663 311.424V181.712Z" fill="white"/>
<path d="M120.889 163.877C120.889 177.309 110 188.198 96.5675 188.198C83.1354 188.198 72.2465 177.309 72.2465 163.877C72.2465 150.445 83.1354 139.556 96.5675 139.556C110 139.556 120.889 150.445 120.889 163.877Z" fill="#1C4572"/>
<path d="M247.358 163.876C247.358 177.309 236.469 188.197 223.037 188.197C209.605 188.197 198.716 177.309 198.716 163.876C198.716 150.444 209.605 139.555 223.037 139.555C236.469 139.555 247.358 150.444 247.358 163.876Z" fill="#1C4572"/>
<path fill-rule="evenodd" clip-rule="evenodd" d="M1.48108 315.342C8.40204 396.71 76.6411 460.593 159.801 460.593C242.872 460.593 311.054 396.846 318.098 315.601C308.319 314.331 298.078 317.451 290.566 324.963L287.892 327.638C273.564 341.966 250.334 341.966 236.007 327.638C221.679 313.311 198.449 313.311 184.122 327.638C169.794 341.966 146.564 341.966 132.237 327.638C117.909 313.311 94.6796 313.311 80.352 327.638C66.0244 341.966 42.7948 341.966 28.4671 327.638L25.7923 324.963C19.1017 318.273 10.2467 315.066 1.48108 315.342Z" fill="#E4E4E4"/>
<path fill-rule="evenodd" clip-rule="evenodd" d="M1.48108 325.071C8.40204 406.439 76.6411 470.322 159.801 470.322C242.872 470.322 311.054 406.575 318.098 325.33C308.319 324.059 298.078 327.18 290.566 334.692L287.892 337.367C273.564 351.694 250.334 351.694 236.007 337.367C221.679 323.039 198.449 323.039 184.122 337.367C169.794 351.694 146.564 351.694 132.237 337.367C117.909 323.039 94.6796 323.039 80.352 337.367C66.0244 351.694 42.7948 351.694 28.4671 337.367L25.7923 334.692C19.1017 328.001 10.2467 324.794 1.48108 325.071Z" fill="#211000"/>
<path d="M149.473 248.218C140.804 232.731 134.636 219.767 128.371 202.579C125.626 195.049 127.415 186.578 132.67 180.527C146.891 164.151 172.513 163.921 186.735 180.297L187.358 181.015C192.416 186.84 194.226 194.86 191.849 202.2C186.139 219.826 180.223 233.012 170.857 248.664C165.957 256.853 154.135 256.546 149.473 248.218Z" fill="#FAA419"/>
<path d="M144.116 199.047C144.941 203.433 144.133 207.319 142.311 207.727C140.489 208.135 138.343 204.911 137.518 200.525C136.692 196.139 137.5 192.252 139.322 191.844C141.145 191.436 143.291 194.661 144.116 199.047Z" fill="#3E1E00"/>
<path d="M176.16 199.047C175.334 203.433 176.142 207.319 177.964 207.727C179.786 208.135 181.933 204.911 182.758 200.525C183.583 196.139 182.775 192.252 180.953 191.844C179.131 191.436 176.985 194.661 176.16 199.047Z" fill="#3E1E00"/>
<path fill-rule="evenodd" clip-rule="evenodd" d="M185.869 5.69162C190.848 12.0288 189.747 21.2025 183.41 26.1817L160.71 44.0171C154.373 48.9963 145.199 47.8955 140.22 41.5583C135.241 35.2212 136.342 26.0474 142.679 21.0682L165.379 3.23281C171.716 -1.74639 180.889 -0.645541 185.869 5.69162Z" fill="white"/>
<path fill-rule="evenodd" clip-rule="evenodd" d="M218.297 5.69162C223.276 12.0288 222.175 21.2025 215.838 26.1817L193.138 44.0171C186.801 48.9963 177.628 47.8955 172.648 41.5583C167.669 35.2212 168.77 26.0474 175.107 21.0682L197.807 3.23281C204.144 -1.74639 213.318 -0.645541 218.297 5.69162Z" fill="white"/>
<path d="M188.987 160.634C209.459 147.241 223.056 141.31 252.222 134.691L221.415 113.613L197.094 124.963L188.987 160.634Z" fill="white"/>
<path d="M128.995 160.634C108.523 147.241 94.927 141.31 65.7607 134.691L96.5674 113.613L120.888 124.963L128.995 160.634Z" fill="white"/>
</svg>
