<svg width="319" height="472" viewBox="0 0 319 472" fill="none" xmlns="http://www.w3.org/2000/svg">
<path d="M0.302734 182.48C0.302734 94.7233 71.4435 23.5825 159.2 23.5825C246.957 23.5825 318.098 94.7233 318.098 182.48V312.192C318.098 399.949 246.957 471.09 159.2 471.09C71.4435 471.09 0.302734 399.949 0.302734 312.192V182.48Z" fill="white"/>
<path d="M120.286 164.645C120.286 178.077 109.398 188.966 95.9654 188.966C82.5333 188.966 71.6444 178.077 71.6444 164.645C71.6444 151.213 82.5333 140.324 95.9654 140.324C109.398 140.324 120.286 151.213 120.286 164.645Z" fill="#1C4572"/>
<path d="M246.756 164.645C246.756 178.077 235.867 188.966 222.435 188.966C209.002 188.966 198.114 178.077 198.114 164.645C198.114 151.213 209.002 140.324 222.435 140.324C235.867 140.324 246.756 151.213 246.756 164.645Z" fill="#1C4572"/>
<path fill-rule="evenodd" clip-rule="evenodd" d="M0.879028 316.11C7.79998 397.479 76.039 461.361 159.199 461.361C242.27 461.361 310.452 397.614 317.496 316.37C307.717 315.099 297.476 318.219 289.964 325.731L287.289 328.406C272.962 342.734 249.732 342.734 235.405 328.406C221.077 314.079 197.847 314.079 183.52 328.406C169.192 342.734 145.962 342.734 131.635 328.406C117.307 314.079 94.0776 314.079 79.75 328.406C65.4223 342.734 42.1927 342.734 27.8651 328.406L25.1902 325.732C18.4996 319.041 9.64461 315.834 0.879028 316.11Z" fill="#E4E4E4"/>
<path fill-rule="evenodd" clip-rule="evenodd" d="M0.879028 325.839C7.79998 407.207 76.039 471.09 159.199 471.09C242.27 471.09 310.452 407.343 317.496 326.098C307.717 324.827 297.476 327.948 289.964 335.46L287.289 338.135C272.962 352.462 249.732 352.463 235.405 338.135C221.077 323.807 197.847 323.807 183.52 338.135C169.192 352.463 145.962 352.463 131.635 338.135C117.307 323.807 94.0776 323.807 79.75 338.135C65.4223 352.463 42.1927 352.463 27.8651 338.135L25.1902 335.46C18.4996 328.769 9.64461 325.562 0.879028 325.839Z" fill="#211000"/>
<path d="M148.872 248.986C140.202 233.499 134.034 220.534 127.769 203.346C125.025 195.817 126.814 187.345 132.068 181.295C146.289 164.919 171.912 164.689 186.133 181.065L186.756 181.783C191.815 187.608 193.624 195.628 191.247 202.967C185.538 220.594 179.621 233.78 170.255 249.432C165.355 257.621 153.533 257.314 148.872 248.986Z" fill="#FAA419"/>
<path d="M143.515 199.815C144.34 204.201 143.532 208.087 141.71 208.495C139.888 208.903 137.742 205.678 136.916 201.292C136.091 196.907 136.899 193.02 138.721 192.612C140.543 192.204 142.689 195.429 143.515 199.815Z" fill="#3E1E00"/>
<path d="M175.558 199.815C174.733 204.201 175.541 208.087 177.363 208.495C179.185 208.903 181.331 205.678 182.156 201.292C182.982 196.907 182.174 193.02 180.352 192.612C178.53 192.204 176.383 195.429 175.558 199.815Z" fill="#3E1E00"/>
<path fill-rule="evenodd" clip-rule="evenodd" d="M185.267 6.45944C190.246 12.7966 189.145 21.9703 182.808 26.9495L160.108 44.785C153.771 49.7642 144.598 48.6633 139.618 42.3261C134.639 35.989 135.74 26.8153 142.077 21.8361L164.777 4.00063C171.114 -0.978566 180.288 0.122281 185.267 6.45944Z" fill="white"/>
<path fill-rule="evenodd" clip-rule="evenodd" d="M217.695 6.45944C222.674 12.7966 221.573 21.9703 215.236 26.9495L192.537 44.785C186.199 49.7642 177.026 48.6633 172.047 42.3261C167.067 35.989 168.168 26.8153 174.505 21.8361L197.205 4.00063C203.542 -0.978566 212.716 0.122281 217.695 6.45944Z" fill="white"/>
<path d="M131.575 177.587C107.407 181.38 92.5741 181.198 63.2654 175.242L82.6839 207.121L109.521 206.772L131.575 177.587Z" fill="white"/>
<path d="M181.9 177.587C206.067 181.38 220.9 181.198 250.209 175.242L230.79 207.121L203.954 206.772L181.9 177.587Z" fill="white"/>
<path d="M246.671 99.532L243.341 91.8886L248.482 89.6997C250.752 88.7242 252.582 87.8556 253.974 87.094C255.366 86.3323 256.417 85.5128 257.127 84.6353C257.845 83.7137 258.309 82.6356 258.518 81.4009C258.803 79.7252 258.422 78.254 257.375 76.9872C256.373 75.7282 255.009 74.9519 253.282 74.6585C251.873 74.4192 250.34 74.499 248.682 74.8979C247.078 75.2605 245.22 76.1472 243.111 77.5582L241.08 78.7784L236.672 71.7004L238.101 70.7183C240.505 68.9491 243.093 67.6192 245.862 66.7287C248.677 65.8459 251.743 65.6863 255.061 66.2499C258.015 66.7518 260.523 67.8131 262.585 69.4338C264.648 71.0546 266.113 73.0275 266.98 75.3526C267.893 77.6854 268.128 80.1526 267.686 82.7543C267.349 84.7387 266.667 86.551 265.64 88.1913C264.659 89.8394 263.159 91.3766 261.14 92.8029C259.128 94.1852 256.465 95.5476 253.152 96.8901L246.671 99.532ZM245.959 114.043C244.323 113.765 243.012 112.952 242.025 111.605C241.038 110.258 240.68 108.79 240.949 107.203C241.227 105.571 242.053 104.283 243.43 103.337C244.806 102.391 246.312 102.057 247.948 102.335C249.63 102.621 250.964 103.437 251.951 104.784C252.937 106.132 253.292 107.621 253.015 109.253C252.745 110.84 251.922 112.107 250.546 113.053C249.17 113.998 247.641 114.328 245.959 114.043Z" fill="#D2D2D2"/>
</svg>
