<svg width="319" height="471" viewBox="0 0 319 471" fill="none" xmlns="http://www.w3.org/2000/svg">
<path d="M0.302734 182.365C0.302734 94.6081 71.4435 23.4673 159.2 23.4673C246.957 23.4673 318.098 94.6081 318.098 182.365V312.077C318.098 399.834 246.957 470.974 159.2 470.974C71.4435 470.974 0.302734 399.834 0.302734 312.077V182.365Z" fill="white"/>
<path fill-rule="evenodd" clip-rule="evenodd" d="M0.879028 315.995C7.79998 397.363 76.039 461.246 159.199 461.246C242.27 461.246 310.452 397.499 317.496 316.254C307.717 314.984 297.476 318.104 289.964 325.616L287.289 328.291C272.962 342.619 249.732 342.619 235.405 328.291C221.077 313.964 197.847 313.964 183.52 328.291C169.192 342.619 145.962 342.619 131.635 328.291C117.307 313.964 94.0776 313.964 79.75 328.291C65.4223 342.619 42.1927 342.619 27.8651 328.291L25.1902 325.616C18.4996 318.926 9.64461 315.719 0.879028 315.995Z" fill="#E4E4E4"/>
<path fill-rule="evenodd" clip-rule="evenodd" d="M0.879028 325.723C7.79998 407.092 76.039 470.975 159.199 470.975C242.27 470.975 310.452 407.228 317.496 325.983C307.717 324.712 297.476 327.833 289.964 335.345L287.289 338.02C272.962 352.347 249.732 352.347 235.405 338.02C221.077 323.692 197.847 323.692 183.52 338.02C169.192 352.347 145.962 352.347 131.635 338.02C117.307 323.692 94.0776 323.692 79.75 338.02C65.4223 352.347 42.1927 352.347 27.8651 338.02L25.1902 335.345C18.4996 328.654 9.64461 325.447 0.879028 325.723Z" fill="#211000"/>
<path d="M148.872 248.871C140.202 233.383 134.034 220.419 127.769 203.231C125.025 195.702 126.814 187.23 132.068 181.18C146.289 164.804 171.912 164.574 186.133 180.95L186.756 181.668C191.815 187.493 193.624 195.513 191.247 202.852C185.538 220.479 179.621 233.664 170.255 249.317C165.355 257.506 153.533 257.198 148.872 248.871Z" fill="#FAA419"/>
<path d="M143.515 199.7C144.34 204.086 143.532 207.972 141.71 208.38C139.888 208.788 137.742 205.563 136.916 201.177C136.091 196.791 136.899 192.905 138.721 192.497C140.543 192.089 142.689 195.314 143.515 199.7Z" fill="#3E1E00"/>
<path d="M175.558 199.7C174.733 204.086 175.541 207.972 177.363 208.38C179.185 208.788 181.331 205.563 182.156 201.177C182.982 196.791 182.174 192.905 180.352 192.497C178.53 192.089 176.383 195.314 175.558 199.7Z" fill="#3E1E00"/>
<path fill-rule="evenodd" clip-rule="evenodd" d="M185.267 6.34421C190.246 12.6814 189.145 21.8551 182.808 26.8343L160.108 44.6697C153.771 49.6489 144.598 48.5481 139.618 42.2109C134.639 35.8737 135.74 26.7 142.077 21.7208L164.777 3.8854C171.114 -1.0938 180.288 0.00704694 185.267 6.34421Z" fill="white"/>
<path fill-rule="evenodd" clip-rule="evenodd" d="M217.695 6.34421C222.674 12.6814 221.573 21.8551 215.236 26.8343L192.537 44.6697C186.199 49.6489 177.026 48.5481 172.047 42.2109C167.067 35.8737 168.168 26.7 174.505 21.7208L197.205 3.8854C203.542 -1.0938 212.716 0.00704694 217.695 6.34421Z" fill="white"/>
<path fill-rule="evenodd" clip-rule="evenodd" d="M58.5071 165.418C74.3241 145.482 96.8906 147.814 109.713 155.309C113.007 157.234 114.116 161.465 112.191 164.758C110.266 168.052 106.035 169.161 102.741 167.236C94.1536 162.216 79.7527 160.867 69.3296 174.005C66.9584 176.993 62.6135 177.494 59.625 175.122C56.6364 172.751 56.1359 168.406 58.5071 165.418Z" fill="#1C4572"/>
<path fill-rule="evenodd" clip-rule="evenodd" d="M260.266 165.418C244.449 145.482 221.883 147.814 209.06 155.309C205.767 157.234 204.658 161.465 206.583 164.758C208.508 168.052 212.738 169.161 216.032 167.236C224.62 162.216 239.021 160.867 249.444 174.005C251.815 176.993 256.16 177.494 259.148 175.122C262.137 172.751 262.638 168.406 260.266 165.418Z" fill="#1C4572"/>
</svg>
