<svg width="283" height="320" viewBox="0 0 283 320" fill="none" xmlns="http://www.w3.org/2000/svg">
<path d="M236.638 1.42612C259.654 -1.60283 287.023 61.9349 241.197 110.759L204.017 52.6448C224.923 41.3789 216.941 4.01814 236.638 1.42612Z" fill="#D68455"/>
<path d="M240.752 22.5813C261.762 51.5757 245.505 86.3229 233.33 98.3953L218.371 74.4826C228.083 77.7858 234.354 43.0159 237.55 23.3888C237.81 21.7941 239.804 21.273 240.752 22.5813Z" fill="#7B482B"/>
<path d="M57.0869 0.865404C34.0702 -2.16355 1.02414 61.1679 41.0674 110.874L82.0312 51.9625C65.4635 43.1914 78.4132 3.67191 57.0869 0.865404Z" fill="#D68455"/>
<path d="M47.4841 20.7883C24.7289 48.4345 38.8163 84.1165 50.2247 96.9154L66.6277 73.9688C56.7309 76.668 52.6115 41.5779 50.6294 21.7913C50.4684 20.1837 48.5108 19.5409 47.4841 20.7883Z" fill="#7B482B"/>
<path d="M282.671 179.194C282.671 256.684 219.457 319.502 141.479 319.502C63.5001 319.502 0.285889 256.684 0.285889 179.194C0.285889 101.705 63.5001 38.8872 141.479 38.8872C219.457 38.8872 282.671 101.705 282.671 179.194Z" fill="#D68455"/>
<path fill-rule="evenodd" clip-rule="evenodd" d="M125.41 292.254C116.638 293.937 107.567 289.497 102.458 279.658C101.776 278.343 102.288 276.724 103.603 276.042C104.917 275.359 106.536 275.872 107.218 277.186C111.39 285.219 118.274 288.162 124.399 286.987C130.561 285.805 136.827 280.275 139.179 269.523L144.435 269.602C146.435 280.27 152.645 285.666 158.836 286.799C165.051 287.936 172.01 284.94 176.008 277.192C176.687 275.876 178.305 275.36 179.621 276.039C180.937 276.718 181.454 278.336 180.774 279.652C175.799 289.293 166.626 293.677 157.871 292.075C151.203 290.855 145.216 286.258 141.701 278.679C138.036 286.288 132.06 290.978 125.41 292.254Z" fill="#3E1E00"/>
<path d="M107.728 44.0432C106.708 32.059 125.264 13.9504 142.15 9.20009C149.986 6.99572 158.214 7.32561 158.214 7.32561C154.389 12.9946 152.553 17.5733 142.15 24.9167C173.36 16.3494 187.791 21.347 191.106 24.9167C184.349 28.2949 170.32 34.4705 160.136 36.4942C170.266 36.466 187.258 37.7265 194.931 44.0432C189.576 45.827 170.453 51.6303 158.214 51.6303C145.975 51.6303 122.847 51.6303 107.728 44.0432Z" fill="#F2B592"/>
<g filter="url(#filter0_dd_1941_9824)">
<path d="M84.6639 227.662C39.9992 199.198 19.8111 227.662 21.4222 239.386C27.5216 283.774 87.1963 319.709 142.98 319.709C188.943 319.709 254.199 287.209 261.544 239.386C263.636 225.76 243.63 198.659 197.314 227.662C150.998 256.665 129.329 256.126 84.6639 227.662Z" fill="#F2B592"/>
</g>
<path fill-rule="evenodd" clip-rule="evenodd" d="M143.312 283.226C138.61 284.42 134.25 287.82 128.867 294.482C128.18 295.332 126.992 295.226 126.213 294.245C125.434 293.264 125.36 291.779 126.047 290.928C131.615 284.036 136.501 280.033 142.103 278.611C147.695 277.191 153.745 278.411 161.433 281.244C162.458 281.622 163.153 282.935 162.986 284.178C162.819 285.42 161.852 286.121 160.827 285.743C153.334 282.982 148.023 282.03 143.312 283.226Z" fill="#3E1E00"/>
<path d="M160.253 246.778C151.811 240.874 132.545 241.086 124.746 246.923C123.608 247.775 123.14 249.225 123.383 250.625C125.303 261.694 135.36 267.54 141.103 269.971C142.31 270.483 143.667 270.46 144.863 269.925C150.336 267.478 159.158 262.183 161.715 250.906C162.068 249.346 161.564 247.695 160.253 246.778Z" fill="#3E1E00"/>
<circle cx="87.77" cy="202.768" r="21.0784" fill="#3E1E00"/>
<circle cx="197.377" cy="202.768" r="21.0784" fill="#3E1E00"/>
<path d="M58.9199 182.581L54.0024 199.474L69.1647 193.706L92.5228 180.521L101.948 171.456L88.0151 166.512L74.0822 171.456L58.9199 182.581Z" fill="#D68455"/>
<path fill-rule="evenodd" clip-rule="evenodd" d="M107.017 174.249C107.973 175.722 107.554 177.69 106.081 178.645C97.9203 183.943 76.2625 195.425 54.3043 199.241C52.575 199.541 50.9295 198.383 50.6291 196.653C50.3286 194.924 51.4869 193.279 53.2162 192.978C74.0354 189.361 94.8786 178.339 102.621 173.314C104.093 172.358 106.061 172.777 107.017 174.249Z" fill="#7B482B"/>
<path d="M227.533 182.581L232.45 199.474L217.288 193.706L193.93 180.521L184.505 171.456L198.438 166.512L212.37 171.456L227.533 182.581Z" fill="#D68455"/>
<path fill-rule="evenodd" clip-rule="evenodd" d="M179.436 174.249C178.48 175.722 178.899 177.69 180.371 178.645C188.532 183.943 210.19 195.425 232.148 199.241C233.878 199.541 235.523 198.383 235.824 196.653C236.124 194.924 234.966 193.279 233.236 192.978C212.417 189.361 191.574 178.339 183.832 173.314C182.36 172.358 180.391 172.777 179.436 174.249Z" fill="#7B482B"/>
<path opacity="0.6" d="M184.003 214.617C184.003 218.288 188.467 221.264 193.973 221.264C199.48 221.264 203.944 218.288 203.944 214.617C203.944 210.946 199.48 207.97 193.973 207.97C188.467 207.97 184.003 210.946 184.003 214.617Z" fill="white"/>
<path opacity="0.6" d="M207.267 211.294C207.267 213.129 208.755 214.617 210.591 214.617C212.426 214.617 213.914 213.129 213.914 211.294C213.914 209.458 212.426 207.97 210.591 207.97C208.755 207.97 207.267 209.458 207.267 211.294Z" fill="white"/>
<path opacity="0.6" d="M99.9139 214.617C99.9139 218.288 95.4499 221.264 89.9433 221.264C84.4367 221.264 79.9727 218.288 79.9727 214.617C79.9727 210.946 84.4367 207.97 89.9433 207.97C95.4499 207.97 99.9139 210.946 99.9139 214.617Z" fill="white"/>
<path opacity="0.6" d="M76.6495 211.294C76.6495 213.129 75.1615 214.617 73.326 214.617C71.4904 214.617 70.0024 213.129 70.0024 211.294C70.0024 209.458 71.4904 207.97 73.326 207.97C75.1615 207.97 76.6495 209.458 76.6495 211.294Z" fill="white"/>
<defs>
<filter id="filter0_dd_1941_9824" x="20.947" y="214.773" width="242.675" height="104.936" filterUnits="userSpaceOnUse" color-interpolation-filters="sRGB">
<feFlood flood-opacity="0" result="BackgroundImageFix"/>
<feColorMatrix in="SourceAlpha" type="matrix" values="0 0 0 0 0 0 0 0 0 0 0 0 0 0 0 0 0 0 127 0" result="hardAlpha"/>
<feOffset dx="-0.386031"/>
<feComposite in2="hardAlpha" operator="out"/>
<feColorMatrix type="matrix" values="0 0 0 0 0 0 0 0 0 0 0 0 0 0 0 0 0 0 0.05 0"/>
<feBlend mode="normal" in2="BackgroundImageFix" result="effect1_dropShadow_1941_9824"/>
<feColorMatrix in="SourceAlpha" type="matrix" values="0 0 0 0 0 0 0 0 0 0 0 0 0 0 0 0 0 0 127 0" result="hardAlpha"/>
<feOffset dx="1.93016"/>
<feComposite in2="hardAlpha" operator="out"/>
<feColorMatrix type="matrix" values="0 0 0 0 0 0 0 0 0 0 0 0 0 0 0 0 0 0 0.05 0"/>
<feBlend mode="normal" in2="effect1_dropShadow_1941_9824" result="effect2_dropShadow_1941_9824"/>
<feBlend mode="normal" in="SourceGraphic" in2="effect2_dropShadow_1941_9824" result="shape"/>
</filter>
</defs>
</svg>
