<svg width="283" height="320" viewBox="0 0 283 320" fill="none" xmlns="http://www.w3.org/2000/svg">
<path d="M236.671 1.8585C259.688 -1.17046 287.056 62.3673 241.231 111.192L204.05 53.0772C224.956 41.8113 216.975 4.45051 236.671 1.8585Z" fill="#D68455"/>
<path d="M240.785 21.9824C261.795 50.9768 245.538 85.724 233.364 97.7964L218.404 73.8838C228.116 77.187 234.388 42.417 237.584 22.7899C237.844 21.1953 239.837 20.6741 240.785 21.9824Z" fill="#7B482B"/>
<path d="M57.1203 0.269212C34.1036 -2.75975 1.05758 60.5717 41.1009 110.278L82.0646 51.3663C65.497 42.5952 78.4466 3.07572 57.1203 0.269212Z" fill="#D68455"/>
<path d="M47.5175 20.1921C24.7624 47.8383 38.8497 83.5203 50.2581 96.3192L66.6612 73.3727C56.7643 76.0718 52.645 40.9817 50.6629 21.1951C50.5018 19.5875 48.5443 18.9447 47.5175 20.1921Z" fill="#7B482B"/>
<path d="M282.705 178.598C282.705 256.088 219.491 318.906 141.512 318.906C63.5335 318.906 0.319336 256.088 0.319336 178.598C0.319336 101.109 63.5335 38.291 141.512 38.291C219.491 38.291 282.705 101.109 282.705 178.598Z" fill="#D68455"/>
<path fill-rule="evenodd" clip-rule="evenodd" d="M125.443 291.658C116.671 293.341 107.6 288.901 102.491 279.062C101.809 277.747 102.321 276.128 103.635 275.446C104.95 274.763 106.569 275.276 107.251 276.59C111.423 284.623 118.306 287.566 124.432 286.391C130.594 285.208 136.86 279.678 139.212 268.927L144.467 269.005C146.468 279.674 152.678 285.07 158.869 286.203C165.084 287.34 172.043 284.343 176.041 276.596C176.72 275.28 178.338 274.763 179.654 275.443C180.97 276.122 181.487 277.739 180.807 279.056C175.832 288.697 166.659 293.081 157.904 291.479C151.236 290.259 145.249 285.662 141.734 278.082C138.069 285.692 132.093 290.382 125.443 291.658Z" fill="#3E1E00"/>
<g filter="url(#filter0_dd_1941_9757)">
<path d="M84.6973 227.062C40.0326 198.598 19.8446 227.062 21.4556 238.786C27.555 283.175 87.2298 319.11 143.014 319.11C188.977 319.11 254.232 286.609 261.577 238.786C263.67 225.16 243.663 198.059 197.347 227.062C151.031 256.065 129.362 255.527 84.6973 227.062Z" fill="#F2B592"/>
</g>
<path d="M160.288 246.178C151.846 240.274 132.579 240.486 124.78 246.324C123.643 247.175 123.175 248.625 123.418 250.025C125.338 261.094 135.395 266.94 141.137 269.372C142.344 269.883 143.701 269.86 144.898 269.325C150.371 266.878 159.193 261.583 161.75 250.306C162.103 248.747 161.598 247.095 160.288 246.178Z" fill="#3E1E00"/>
<path fill-rule="evenodd" clip-rule="evenodd" d="M126.468 288.798C117.697 290.48 108.626 286.04 103.517 276.201C102.834 274.887 103.346 273.268 104.661 272.585C105.975 271.903 107.594 272.415 108.277 273.729C112.448 281.763 119.332 284.705 125.458 283.53C131.619 282.348 137.886 276.818 140.237 266.066L145.493 266.145C147.493 276.813 153.703 282.209 159.894 283.342C166.11 284.479 173.068 281.483 177.066 273.735C177.746 272.419 179.363 271.903 180.679 272.582C181.996 273.261 182.512 274.879 181.833 276.195C176.857 285.837 167.684 290.22 158.929 288.618C152.261 287.398 146.274 282.802 142.76 275.222C139.094 282.831 133.118 287.522 126.468 288.798Z" fill="#3E1E00"/>
<path d="M140.276 8.82329C124.324 14.1238 106.795 34.3299 107.758 47.7023C122.041 56.1682 143.889 56.1682 155.45 56.1682C167.012 56.1682 185.077 49.6928 190.135 47.7023C177.851 35.7562 139.368 36.3919 150.929 36.3919C160.178 36.3919 178.814 30.9125 186.522 26.3603C183.391 22.3771 169.758 16.8007 140.276 26.3603C150.103 18.1663 151.837 13.0573 155.45 6.73169C155.45 6.73169 147.678 6.36359 140.276 8.82329Z" fill="#C66B38"/>
<path d="M107.761 43.4473C106.741 31.463 125.297 13.3544 142.183 8.60414C150.019 6.39977 158.247 6.72966 158.247 6.72966C154.422 12.3986 152.586 16.9773 142.183 24.3207C173.392 15.7534 187.824 20.751 191.139 24.3207C184.382 27.6989 170.353 33.8745 160.169 35.8983C170.299 35.8701 187.291 37.1306 194.964 43.4473C189.609 45.2311 170.486 51.0343 158.247 51.0343C146.008 51.0343 122.88 51.0343 107.761 43.4473Z" fill="#F2B592"/>
<circle cx="87.8696" cy="202.172" r="21.0784" fill="#3E1E00"/>
<circle cx="197.477" cy="202.172" r="21.0784" fill="#3E1E00"/>
<defs>
<filter id="filter0_dd_1941_9757" x="20.9804" y="214.174" width="242.675" height="104.936" filterUnits="userSpaceOnUse" color-interpolation-filters="sRGB">
<feFlood flood-opacity="0" result="BackgroundImageFix"/>
<feColorMatrix in="SourceAlpha" type="matrix" values="0 0 0 0 0 0 0 0 0 0 0 0 0 0 0 0 0 0 127 0" result="hardAlpha"/>
<feOffset dx="-0.386031"/>
<feComposite in2="hardAlpha" operator="out"/>
<feColorMatrix type="matrix" values="0 0 0 0 0 0 0 0 0 0 0 0 0 0 0 0 0 0 0.05 0"/>
<feBlend mode="normal" in2="BackgroundImageFix" result="effect1_dropShadow_1941_9757"/>
<feColorMatrix in="SourceAlpha" type="matrix" values="0 0 0 0 0 0 0 0 0 0 0 0 0 0 0 0 0 0 127 0" result="hardAlpha"/>
<feOffset dx="1.93016"/>
<feComposite in2="hardAlpha" operator="out"/>
<feColorMatrix type="matrix" values="0 0 0 0 0 0 0 0 0 0 0 0 0 0 0 0 0 0 0.05 0"/>
<feBlend mode="normal" in2="effect1_dropShadow_1941_9757" result="effect2_dropShadow_1941_9757"/>
<feBlend mode="normal" in="SourceGraphic" in2="effect2_dropShadow_1941_9757" result="shape"/>
</filter>
</defs>
</svg>
