<svg width="283" height="320" viewBox="0 0 283 320" fill="none" xmlns="http://www.w3.org/2000/svg">
<path d="M236.808 1.24253C259.825 -1.78643 287.193 61.7513 241.368 110.576L204.187 52.4612C225.093 41.1953 217.112 3.83455 236.808 1.24253Z" fill="#D68455"/>
<path d="M240.921 22.3977C261.931 51.3921 245.674 86.1393 233.5 98.2117L218.54 74.2991C228.252 77.6023 234.523 42.8323 237.72 23.2052C237.979 21.6105 239.973 21.0894 240.921 22.3977Z" fill="#7B482B"/>
<path d="M57.2561 0.681566C34.2394 -2.34739 1.19333 60.984 41.2366 110.691L82.2004 51.7787C65.6327 43.0076 78.5824 3.48807 57.2561 0.681566Z" fill="#D68455"/>
<path d="M47.6533 20.6045C24.8981 48.2507 38.9855 83.9326 50.3939 96.7316L66.7969 73.785C56.9 76.4842 52.7807 41.3941 50.7986 21.6075C50.6376 19.9999 48.68 19.357 47.6533 20.6045Z" fill="#7B482B"/>
<path d="M282.841 179.011C282.841 256.5 219.626 319.318 141.648 319.318C63.6692 319.318 0.455078 256.5 0.455078 179.011C0.455078 101.521 63.6692 38.7034 141.648 38.7034C219.626 38.7034 282.841 101.521 282.841 179.011Z" fill="#D68455"/>
<path fill-rule="evenodd" clip-rule="evenodd" d="M125.579 292.07C116.808 293.753 107.736 289.313 102.627 279.474C101.945 278.16 102.457 276.541 103.772 275.858C105.086 275.176 106.705 275.688 107.388 277.002C111.559 285.036 118.443 287.978 124.569 286.803C130.73 285.621 136.996 280.091 139.348 269.339L144.604 269.418C146.604 280.086 152.814 285.482 159.005 286.615C165.22 287.752 172.179 284.756 176.177 277.008C176.856 275.692 178.474 275.176 179.79 275.855C181.106 276.534 181.623 278.152 180.944 279.468C175.968 289.109 166.795 293.493 158.04 291.891C151.372 290.671 145.385 286.075 141.871 278.495C138.205 286.104 132.229 290.795 125.579 292.07Z" fill="#3E1E00"/>
<g filter="url(#filter0_dd_1941_9778)">
<path d="M84.833 227.475C40.1684 199.011 19.9803 227.474 21.5914 239.199C27.6908 283.587 87.3655 319.522 143.149 319.522C189.113 319.522 254.368 287.021 261.713 239.199C263.806 225.572 243.799 198.472 197.483 227.475C151.167 256.478 129.498 255.939 84.833 227.475Z" fill="#F2B592"/>
</g>
<path d="M88.5013 256.538C83.21 268.136 64.9104 271.147 47.6279 263.263C30.3454 255.379 20.6245 239.585 25.9157 227.986C31.207 216.388 49.5066 213.377 66.7891 221.261C84.0716 229.145 93.7925 244.939 88.5013 256.538Z" fill="#FF9E9E" fill-opacity="0.3"/>
<path d="M194.023 256.538C199.315 268.136 217.614 271.147 234.897 263.263C252.179 255.379 261.9 239.585 256.609 227.986C251.318 216.388 233.018 213.377 215.736 221.261C198.453 229.145 188.732 244.939 194.023 256.538Z" fill="#FF9E9E" fill-opacity="0.3"/>
<path d="M160.424 246.591C151.982 240.687 132.715 240.899 124.916 246.736C123.779 247.587 123.311 249.037 123.553 250.437C125.474 261.506 135.531 267.352 141.273 269.784C142.48 270.295 143.837 270.273 145.034 269.738C150.506 267.29 159.329 261.996 161.885 250.718C162.239 249.159 161.734 247.507 160.424 246.591Z" fill="#3E1E00"/>
<path fill-rule="evenodd" clip-rule="evenodd" d="M126.604 289.21C117.832 290.893 108.761 286.453 103.652 276.613C102.97 275.299 103.482 273.68 104.797 272.998C106.111 272.315 107.73 272.827 108.413 274.142C112.584 282.175 119.468 285.118 125.593 283.942C131.755 282.76 138.021 277.23 140.373 266.479L145.629 266.557C147.629 277.225 153.839 282.622 160.03 283.754C166.245 284.892 173.204 281.895 177.202 274.148C177.881 272.832 179.499 272.315 180.815 272.994C182.131 273.674 182.648 275.291 181.969 276.607C176.993 286.249 167.82 290.632 159.065 289.03C152.397 287.811 146.41 283.214 142.895 275.634C139.23 283.244 133.254 287.934 126.604 289.21Z" fill="#3E1E00"/>
<path d="M143.158 275.657C137.006 286.755 128.464 289.432 123.287 289.331C124.493 297.222 132.704 309.923 143.158 309.923C155.096 309.923 162.117 297.322 163.223 289.331C157.593 289.331 147.377 286.739 143.158 275.657Z" fill="#3E1E00"/>
<path d="M140.641 293.352C137.425 290.932 136.111 286.32 135.856 284.316C139.394 282.039 141.274 279.219 143.092 275.424C144.528 279.183 146.508 282.534 149.734 284.316C148.877 289.217 146.04 292.229 144.815 293.352H143.37L142.834 284.979L141.855 293.352H140.641Z" fill="white"/>
<path d="M132.737 305.587C137.478 303.477 148.545 300.438 154.349 305.502C148.183 311.189 138.936 311.591 132.737 305.587Z" fill="#FB699F"/>
<path d="M107.898 43.8596C106.878 31.8754 125.434 13.7668 142.32 9.01649C150.156 6.81213 158.384 7.14202 158.384 7.14202C154.559 12.811 152.723 17.3897 142.32 24.7331C173.529 16.1658 187.961 21.1634 191.276 24.7331C184.519 28.1113 170.489 34.2869 160.305 36.3106C170.435 36.2824 187.428 37.5429 195.101 43.8596C189.746 45.6434 170.623 51.4467 158.384 51.4467C146.145 51.4467 123.017 51.4467 107.898 43.8596Z" fill="#F2B592"/>
<path fill-rule="evenodd" clip-rule="evenodd" d="M72.1016 204.194C83.8108 189.436 100.517 191.162 110.009 196.711C112.447 198.136 113.268 201.268 111.843 203.706C110.418 206.144 107.286 206.965 104.848 205.54C98.4905 201.824 87.8296 200.825 80.1134 210.551C78.3581 212.763 75.1416 213.134 72.9291 211.378C70.7167 209.623 70.3462 206.406 72.1016 204.194Z" fill="#3E1E00"/>
<path fill-rule="evenodd" clip-rule="evenodd" d="M214.408 204.194C202.699 189.436 185.993 191.162 176.5 196.711C174.062 198.136 173.241 201.268 174.666 203.706C176.091 206.144 179.223 206.965 181.662 205.54C188.019 201.824 198.68 200.825 206.396 210.551C208.151 212.763 211.368 213.134 213.58 211.378C215.793 209.623 216.163 206.406 214.408 204.194Z" fill="#3E1E00"/>
<defs>
<filter id="filter0_dd_1941_9778" x="21.1162" y="214.586" width="242.675" height="104.936" filterUnits="userSpaceOnUse" color-interpolation-filters="sRGB">
<feFlood flood-opacity="0" result="BackgroundImageFix"/>
<feColorMatrix in="SourceAlpha" type="matrix" values="0 0 0 0 0 0 0 0 0 0 0 0 0 0 0 0 0 0 127 0" result="hardAlpha"/>
<feOffset dx="-0.386031"/>
<feComposite in2="hardAlpha" operator="out"/>
<feColorMatrix type="matrix" values="0 0 0 0 0 0 0 0 0 0 0 0 0 0 0 0 0 0 0.05 0"/>
<feBlend mode="normal" in2="BackgroundImageFix" result="effect1_dropShadow_1941_9778"/>
<feColorMatrix in="SourceAlpha" type="matrix" values="0 0 0 0 0 0 0 0 0 0 0 0 0 0 0 0 0 0 127 0" result="hardAlpha"/>
<feOffset dx="1.93016"/>
<feComposite in2="hardAlpha" operator="out"/>
<feColorMatrix type="matrix" values="0 0 0 0 0 0 0 0 0 0 0 0 0 0 0 0 0 0 0.05 0"/>
<feBlend mode="normal" in2="effect1_dropShadow_1941_9778" result="effect2_dropShadow_1941_9778"/>
<feBlend mode="normal" in="SourceGraphic" in2="effect2_dropShadow_1941_9778" result="shape"/>
</filter>
</defs>
</svg>
