<svg width="283" height="320" viewBox="0 0 283 320" fill="none" xmlns="http://www.w3.org/2000/svg">
<path d="M236.672 1.56528C259.689 -1.46367 287.057 62.0741 241.232 110.899L204.051 52.784C224.957 41.5181 216.976 4.1573 236.672 1.56528Z" fill="#D68455"/>
<path d="M240.786 22.7204C261.796 51.7148 245.539 86.462 233.365 98.5345L218.405 74.6218C228.117 77.925 234.388 43.155 237.585 23.5279C237.844 21.9333 239.838 21.4122 240.786 22.7204Z" fill="#7B482B"/>
<path d="M57.1203 1.00432C34.1036 -2.02464 1.05758 61.3068 41.1009 111.013L82.0646 52.1014C65.497 43.3303 78.4466 3.81082 57.1203 1.00432Z" fill="#D68455"/>
<path d="M47.5175 20.9272C24.7624 48.5734 38.8497 84.2554 50.2581 97.0543L66.6612 74.1078C56.7643 76.8069 52.645 41.7168 50.6629 21.9302C50.5018 20.3226 48.5443 19.6798 47.5175 20.9272Z" fill="#7B482B"/>
<path d="M282.705 179.333C282.705 256.823 219.491 319.641 141.512 319.641C63.5335 319.641 0.319336 256.823 0.319336 179.333C0.319336 101.844 63.5335 39.0261 141.512 39.0261C219.491 39.0261 282.705 101.844 282.705 179.333Z" fill="#D68455"/>
<path fill-rule="evenodd" clip-rule="evenodd" d="M125.443 292.393C116.672 294.076 107.601 289.636 102.492 279.797C101.809 278.483 102.321 276.864 103.636 276.181C104.95 275.499 106.569 276.011 107.252 277.325C111.423 285.359 118.307 288.301 124.433 287.126C130.594 285.944 136.861 280.414 139.212 269.662L144.468 269.741C146.468 280.409 152.678 285.805 158.869 286.938C165.085 288.075 172.044 285.079 176.042 277.331C176.721 276.015 178.338 275.499 179.655 276.178C180.971 276.857 181.487 278.475 180.808 279.791C175.832 289.432 166.66 293.816 157.904 292.214C151.236 290.994 145.249 286.398 141.735 278.818C138.069 286.427 132.093 291.118 125.443 292.393Z" fill="#3E1E00"/>
<path d="M107.761 44.1824C106.741 32.1981 125.298 14.0895 142.184 9.33925C150.02 7.13488 158.247 7.46477 158.247 7.46477C154.422 13.1337 152.587 17.7124 142.184 25.0558C173.393 16.4885 187.825 21.4861 191.139 25.0558C184.383 28.434 170.353 34.6096 160.169 36.6334C170.299 36.6052 187.292 37.8657 194.964 44.1824C189.61 45.9662 170.486 51.7694 158.247 51.7694C146.008 51.7694 122.881 51.7694 107.761 44.1824Z" fill="#F2B592"/>
<g filter="url(#filter0_dd_1941_9800)">
<path d="M84.6973 227.801C40.0326 199.337 19.8446 227.801 21.4556 239.525C27.555 283.913 87.2298 319.848 143.014 319.848C188.977 319.848 254.232 287.347 261.577 239.525C263.67 225.899 243.663 198.798 197.347 227.801C151.031 256.804 129.362 256.265 84.6973 227.801Z" fill="#F2B592"/>
</g>
<path d="M166.079 299.514C165.248 306.319 154.661 298.969 145.452 298.969C136.243 298.969 127.212 308.638 127.212 299.514C127.212 290.391 136.745 277.525 145.954 277.525C155.163 277.525 166.079 290.391 166.079 299.514Z" fill="#3E1E00"/>
<path d="M143.822 288.628C140.489 286.373 139.081 281.907 138.725 279.918C142.749 277.165 145.9 277.382 145.9 277.382C145.9 277.382 148.666 277.249 152.304 279.244C151.693 284.181 149.157 287.235 147.99 288.418L146.547 288.491L145.591 280.155L145.035 288.567L143.822 288.628Z" fill="white"/>
<path d="M145.767 298.963C150.494 296.823 160.262 294.935 166.098 299.961C164.601 305.822 154.741 299.312 145.767 298.963Z" fill="#FB699F"/>
<path d="M160.287 246.917C151.845 241.013 132.578 241.225 124.779 247.062C123.642 247.913 123.174 249.363 123.416 250.763C125.337 261.832 135.394 267.678 141.136 270.11C142.343 270.621 143.7 270.599 144.897 270.064C150.369 267.616 159.192 262.322 161.748 251.045C162.102 249.485 161.597 247.833 160.287 246.917Z" fill="#3E1E00"/>
<circle cx="88.0535" cy="202.907" r="21.0784" fill="#3E1E00"/>
<circle cx="197.661" cy="202.907" r="21.0784" fill="#3E1E00"/>
<defs>
<filter id="filter0_dd_1941_9800" x="20.9804" y="214.912" width="242.675" height="104.936" filterUnits="userSpaceOnUse" color-interpolation-filters="sRGB">
<feFlood flood-opacity="0" result="BackgroundImageFix"/>
<feColorMatrix in="SourceAlpha" type="matrix" values="0 0 0 0 0 0 0 0 0 0 0 0 0 0 0 0 0 0 127 0" result="hardAlpha"/>
<feOffset dx="-0.386031"/>
<feComposite in2="hardAlpha" operator="out"/>
<feColorMatrix type="matrix" values="0 0 0 0 0 0 0 0 0 0 0 0 0 0 0 0 0 0 0.05 0"/>
<feBlend mode="normal" in2="BackgroundImageFix" result="effect1_dropShadow_1941_9800"/>
<feColorMatrix in="SourceAlpha" type="matrix" values="0 0 0 0 0 0 0 0 0 0 0 0 0 0 0 0 0 0 127 0" result="hardAlpha"/>
<feOffset dx="1.93016"/>
<feComposite in2="hardAlpha" operator="out"/>
<feColorMatrix type="matrix" values="0 0 0 0 0 0 0 0 0 0 0 0 0 0 0 0 0 0 0.05 0"/>
<feBlend mode="normal" in2="effect1_dropShadow_1941_9800" result="effect2_dropShadow_1941_9800"/>
<feBlend mode="normal" in="SourceGraphic" in2="effect2_dropShadow_1941_9800" result="shape"/>
</filter>
</defs>
</svg>
