<svg width="457" height="384" viewBox="0 0 457 384" fill="none" xmlns="http://www.w3.org/2000/svg">
<path fill-rule="evenodd" clip-rule="evenodd" d="M229.286 373.887C340.134 373.887 429.994 292.492 429.994 192.086C429.994 173.753 426.998 156.053 421.425 139.367C436.813 127.359 446.708 108.639 446.708 87.6077C446.708 51.3693 417.331 21.9924 381.093 21.9924C364.235 21.9924 348.863 28.3495 337.241 38.7971C306.07 20.748 269.027 10.2861 229.286 10.2861C189.162 10.2861 151.789 20.9507 120.431 39.3213C108.744 28.5625 93.1409 21.9924 76.0033 21.9924C39.7649 21.9924 10.3879 51.3693 10.3879 87.6077C10.3879 109.171 20.79 128.306 36.8499 140.266C31.4681 156.688 28.5786 174.082 28.5786 192.086C28.5786 292.492 118.438 373.887 229.286 373.887Z" fill="white"/>
<path fill-rule="evenodd" clip-rule="evenodd" d="M417.405 134.226L413.769 137.063L415.23 141.438C420.585 157.471 423.463 174.473 423.463 192.09C423.463 288.299 337.147 367.364 229.281 367.364C121.415 367.364 35.0998 288.299 35.0998 192.09C35.0998 174.789 37.8755 158.081 43.0466 142.302L44.5088 137.84L40.743 135.036C26.2655 124.254 16.9091 107.026 16.9091 87.6113C16.9091 54.9773 43.3642 28.5222 75.9982 28.5222C91.4349 28.5222 105.476 34.433 116.006 44.1264L119.559 47.3968L123.725 44.956C154.083 27.171 190.318 16.816 229.281 16.816C267.872 16.816 303.787 26.9742 333.966 44.4485L338.071 46.8256L341.599 43.654C352.069 34.2415 365.903 28.5222 381.088 28.5222C413.722 28.5222 440.177 54.9773 440.177 87.6113C440.177 106.547 431.277 123.401 417.405 134.226ZM229.281 383.325C344.437 383.325 439.424 298.566 439.424 192.09C439.424 174.941 436.942 158.31 432.286 142.487C446.95 128.799 456.138 109.275 456.138 87.6113C456.138 46.1621 422.537 12.561 381.088 12.561C364.28 12.561 348.746 18.0962 336.234 27.4341C304.866 10.5288 268.284 0.854736 229.281 0.854736C189.921 0.854736 153.028 10.7065 121.469 27.8996C108.853 18.2807 93.0846 12.561 75.9982 12.561C34.5491 12.561 0.947876 46.1621 0.947876 87.6113C0.947876 109.845 10.6249 129.822 25.9664 143.553C21.5105 159.057 19.1386 175.326 19.1386 192.09C19.1386 298.566 114.126 383.325 229.281 383.325ZM234.524 376.739C344.291 374.217 432.894 292.767 432.894 192.09C432.894 174.141 430.071 156.787 424.806 140.377C439.953 127.812 449.608 108.838 449.608 87.6113C449.608 49.7665 418.929 19.0872 381.084 19.0872C381.085 19.0872 381.087 19.0872 381.088 19.0872C418.933 19.0872 449.612 49.7665 449.612 87.6113C449.612 107.422 441.203 125.27 427.768 137.777C426.807 138.671 425.821 139.538 424.81 140.377C425.207 141.614 425.59 142.856 425.959 144.104C430.484 159.407 432.898 175.494 432.898 192.09C432.898 292.768 344.293 374.218 234.524 376.739ZM336.883 35.2471C335.766 34.6153 334.642 33.9931 333.511 33.3806C303.009 16.8626 267.356 7.38094 229.281 7.38094C229.28 7.38094 229.279 7.38094 229.277 7.38094C229.277 7.38094 229.277 7.38099 229.277 7.38099C268.766 7.38099 305.648 17.5794 336.882 35.2484C336.882 35.248 336.883 35.2475 336.883 35.2471ZM120.789 35.7513C119.814 34.9086 118.815 34.0928 117.793 33.3052C106.227 24.3913 91.7297 19.0872 75.9982 19.0872C75.9969 19.0872 75.9956 19.0872 75.9943 19.0872C75.9944 19.0872 75.9944 19.0872 75.9944 19.0872C93.1165 19.0872 108.777 25.3706 120.787 35.7527C120.788 35.7522 120.789 35.7518 120.789 35.7513ZM120.425 39.3236C120.425 39.324 120.426 39.3245 120.426 39.3249C121.027 38.9729 121.63 38.6237 122.235 38.2773C151.281 21.6575 185.36 11.6014 221.934 10.4093C184.597 11.6256 149.86 22.0794 120.425 39.3236ZM74.3047 22.0174C38.8473 22.9137 10.3791 51.938 10.3791 87.6113C10.3791 109.175 20.7811 128.309 36.8411 140.27C31.4592 156.692 28.5698 174.085 28.5698 192.09C28.5698 292.496 118.43 373.89 229.277 373.89C229.279 373.89 229.28 373.89 229.281 373.89C118.433 373.89 28.5736 292.496 28.5736 192.09C28.5736 174.79 31.2415 158.054 36.2249 142.201C36.4277 141.556 36.6344 140.912 36.8449 140.27C36.3094 139.871 35.7802 139.464 35.2575 139.05C20.1028 127.031 10.3829 108.456 10.3829 87.6113C10.3829 51.9392 38.849 22.9157 74.3047 22.0174ZM378.08 22.0637C362.405 22.7701 348.161 28.9765 337.234 38.7994C337.235 38.7998 337.236 38.8003 337.236 38.8007C337.738 38.3495 338.247 37.906 338.763 37.4702C349.474 28.4193 363.125 22.7384 378.08 22.0637Z" fill="#CFCFCF"/>
<path d="M141.595 87.6126C141.595 123.851 112.218 153.228 75.9801 153.228C39.7417 153.228 10.3647 123.851 10.3647 87.6126C10.3647 51.3743 39.7417 21.9973 75.9801 21.9973C112.218 21.9973 141.595 51.3743 141.595 87.6126Z" fill="white"/>
<path d="M115.698 87.6183C115.698 109.546 97.9218 127.322 75.9941 127.322C54.0665 127.322 36.2906 109.546 36.2906 87.6183C36.2906 65.6907 54.0665 47.9148 75.9941 47.9148C97.9218 47.9148 115.698 65.6907 115.698 87.6183Z" fill="#FFB7E2"/>
<path d="M446.707 87.6126C446.707 123.851 417.33 153.228 381.092 153.228C344.853 153.228 315.476 123.851 315.476 87.6126C315.476 51.3743 344.853 21.9973 381.092 21.9973C417.33 21.9973 446.707 51.3743 446.707 87.6126Z" fill="white"/>
<path d="M420.802 87.6183C420.802 109.546 403.026 127.322 381.099 127.322C359.171 127.322 341.395 109.546 341.395 87.6183C341.395 65.6907 359.171 47.9148 381.099 47.9148C403.026 47.9148 420.802 65.6907 420.802 87.6183Z" fill="#FFB7E2"/>
<path d="M429.996 192.086C429.996 292.492 340.136 373.887 229.288 373.887C118.441 373.887 28.5809 292.492 28.5809 192.086C28.5809 91.6809 118.441 10.2861 229.288 10.2861C340.136 10.2861 429.996 91.6809 429.996 192.086Z" fill="white"/>
<path d="M188.344 201.723C208.599 173.995 249.992 176.619 270.003 204.523C281.805 220.981 290.619 235.859 297.853 251.246C310.666 278.5 293.701 310.376 264.02 315.468C239.916 319.604 218.468 319.714 194.916 315.592C166.201 310.565 150.084 279.887 160.725 252.748C168.13 233.862 176.727 217.628 188.344 201.723Z" fill="#F2F2F2"/>
<path d="M235.069 250.435C231.747 254.115 225.95 253.768 222.872 249.882C215.721 240.854 211.846 234.124 208.855 226.085C207.207 221.656 209.798 216.805 214.383 215.658C225.017 212.996 233.087 212.91 243.354 215.613C247.777 216.777 250.231 221.45 248.836 225.805C245.646 235.756 241.973 242.787 235.069 250.435Z" fill="black"/>
<path fill-rule="evenodd" clip-rule="evenodd" d="M229.561 245.616C232.527 245.616 234.931 248.075 234.931 251.108V270.517C245.38 286.639 269.158 285.765 278.298 268.441L280.441 264.378C281.85 261.709 285.107 260.713 287.717 262.153C290.327 263.593 291.302 266.925 289.893 269.594L287.75 273.657C275.758 296.386 246.073 299.229 229.84 281.583C214.986 299.777 185.955 299.101 172.477 277.941L167.408 269.984C165.789 267.442 166.491 264.04 168.976 262.385C171.461 260.729 174.788 261.447 176.407 263.989L181.476 271.946C191.764 288.098 215.001 287.196 224.191 270.706V251.108C224.191 248.075 226.595 245.616 229.561 245.616Z" fill="black"/>
<path fill-rule="evenodd" clip-rule="evenodd" d="M112.205 190.045C128.09 170.024 150.753 172.365 163.631 179.892C166.938 181.826 168.052 186.075 166.119 189.382C164.186 192.69 159.937 193.804 156.629 191.871C148.004 186.829 133.542 185.475 123.074 198.668C120.692 201.67 116.329 202.172 113.327 199.791C110.326 197.41 109.823 193.046 112.205 190.045Z" fill="black"/>
<path fill-rule="evenodd" clip-rule="evenodd" d="M342.66 190.045C326.775 170.024 304.111 172.365 291.234 179.892C287.926 181.826 286.812 186.075 288.746 189.382C290.679 192.69 294.928 193.804 298.235 191.871C306.86 186.829 321.323 185.475 331.791 198.668C334.172 201.67 338.536 202.172 341.537 199.791C344.538 197.41 345.041 193.046 342.66 190.045Z" fill="black"/>
<ellipse cx="354.756" cy="250.777" rx="17.56" ry="10.6092" fill="#FF9E9E"/>
<ellipse cx="109.644" cy="250.777" rx="17.56" ry="10.6092" fill="#FF9E9E"/>
</svg>
