<svg width="457" height="385" viewBox="0 0 457 385" fill="none" xmlns="http://www.w3.org/2000/svg">
<path fill-rule="evenodd" clip-rule="evenodd" d="M229.682 374.773C340.762 374.773 430.811 293.208 430.811 192.591C430.811 174.219 427.808 156.483 422.224 139.762C437.645 127.729 447.56 108.969 447.56 87.8933C447.56 51.5789 418.122 22.1402 381.807 22.1402C364.914 22.1402 349.509 28.5107 337.863 38.9803C306.626 20.8933 269.506 10.4094 229.682 10.4094C189.474 10.4094 152.021 21.0964 120.598 39.5055C108.886 28.7241 93.2505 22.1402 76.0769 22.1402C39.7625 22.1402 10.3239 51.5789 10.3239 87.8933C10.3239 109.502 20.7477 128.677 36.8414 140.662C31.4483 157.119 28.5527 174.549 28.5527 192.591C28.5527 293.208 118.601 374.773 229.682 374.773Z" fill="white"/>
<path fill-rule="evenodd" clip-rule="evenodd" d="M418.19 134.609L414.547 137.452L416.011 141.837C421.376 157.903 424.26 174.941 424.26 192.595C424.26 289.005 337.764 368.237 229.671 368.237C121.579 368.237 35.0824 289.005 35.0824 192.595C35.0824 175.257 37.8639 158.514 43.0458 142.702L44.5111 138.231L40.7374 135.42C26.2295 124.616 16.8535 107.352 16.8535 87.8965C16.8535 55.1939 43.3641 28.6833 76.0667 28.6833C91.5358 28.6833 105.607 34.6065 116.159 44.3203L119.719 47.5975L123.894 45.1516C154.315 27.3293 190.627 16.9525 229.671 16.9525C268.343 16.9525 304.334 27.132 334.576 44.6431L338.69 47.0252L342.225 43.8469C352.717 34.4146 366.58 28.6833 381.797 28.6833C414.499 28.6833 441.01 55.1939 441.01 87.8965C441.01 106.872 432.091 123.762 418.19 134.609ZM229.671 384.231C345.069 384.231 440.255 299.294 440.255 192.595C440.255 175.41 437.768 158.744 433.102 142.887C447.797 129.171 457.005 109.606 457.005 87.8965C457.005 46.3603 423.333 12.6886 381.797 12.6886C364.953 12.6886 349.387 18.2354 336.849 27.593C305.415 10.6521 268.757 0.957764 229.671 0.957764C190.229 0.957764 153.258 10.8302 121.633 28.0594C108.991 18.4203 93.1889 12.6886 76.0667 12.6886C34.5305 12.6886 0.858765 46.3603 0.858765 87.8965C0.858765 110.177 10.5561 130.196 25.9298 143.955C21.4646 159.492 19.0876 175.795 19.0876 192.595C19.0876 299.294 114.274 384.231 229.671 384.231ZM32.3066 145.445C32.6669 144.2 33.0411 142.961 33.4291 141.727C33.4292 141.727 33.4292 141.727 33.4292 141.727C28.3481 157.89 25.6277 174.956 25.6277 192.595C25.6277 194.058 25.6462 195.518 25.6834 196.973C25.6462 195.518 25.6276 194.058 25.6276 192.595C25.6276 176.303 27.9484 160.5 32.3066 145.445ZM376.052 19.4655C362.793 20.5641 350.6 25.4311 340.552 32.9904C339.512 33.773 338.495 34.5845 337.501 35.4236C336.382 34.7901 335.254 34.1661 334.12 33.5519C335.255 34.1662 336.382 34.7903 337.502 35.4238C348.087 26.4795 361.421 20.678 376.052 19.4655ZM257.79 9.24092C248.597 8.09152 239.21 7.49767 229.671 7.49767C191.134 7.49767 155.073 17.1904 124.306 34.0512C123.181 34.6675 122.064 35.2935 120.953 35.9289C119.976 35.0839 118.974 34.266 117.95 33.4764C106.359 24.5438 91.8312 19.2285 76.0667 19.2285C38.1424 19.2285 7.39867 49.9722 7.39867 87.8965C7.39867 94.6168 8.36433 101.112 10.1641 107.25C8.36437 101.112 7.39879 94.6169 7.39879 87.8967C7.39879 49.9724 38.1425 19.2287 76.0668 19.2287C93.2249 19.2287 108.918 25.5252 120.953 35.9291C152.44 17.9122 189.726 7.49788 229.672 7.49788C239.21 7.49788 248.597 8.09153 257.79 9.24092ZM422.835 141.663C422.632 141.029 422.425 140.396 422.214 139.765C422.732 139.361 423.244 138.948 423.75 138.529C423.244 138.948 422.732 139.36 422.214 139.765C422.425 140.396 422.632 141.029 422.835 141.663Z" fill="#CFCFCF"/>
<path d="M141.805 87.8988C141.805 124.213 112.366 153.652 76.0515 153.652C39.7371 153.652 10.2984 124.213 10.2984 87.8988C10.2984 51.5844 39.7371 22.1458 76.0515 22.1458C112.366 22.1458 141.805 51.5844 141.805 87.8988Z" fill="white"/>
<path d="M115.854 87.9038C115.854 109.878 98.0409 127.691 76.0672 127.691C54.0935 127.691 36.2803 109.878 36.2803 87.9038C36.2803 65.9301 54.0935 48.1169 76.0672 48.1169C98.0409 48.1169 115.854 65.9301 115.854 87.9038Z" fill="#FFB7E2"/>
<path d="M447.555 87.8988C447.555 124.213 418.116 153.652 381.802 153.652C345.488 153.652 316.049 124.213 316.049 87.8988C316.049 51.5844 345.488 22.1458 381.802 22.1458C418.116 22.1458 447.555 51.5844 447.555 87.8988Z" fill="white"/>
<path d="M421.591 87.9038C421.591 109.878 403.777 127.691 381.804 127.691C359.83 127.691 342.017 109.878 342.017 87.9038C342.017 65.9301 359.83 48.1169 381.804 48.1169C403.777 48.1169 421.591 65.9301 421.591 87.9038Z" fill="#FFB7E2"/>
<path d="M430.809 192.591C430.809 293.208 340.76 374.773 229.68 374.773C118.6 374.773 28.5511 293.208 28.5511 192.591C28.5511 91.9751 118.6 10.4094 229.68 10.4094C340.76 10.4094 430.809 91.9751 430.809 192.591Z" fill="white"/>
<path d="M188.655 202.248C208.952 174.461 250.432 177.091 270.485 205.053C282.312 221.546 291.145 236.455 298.394 251.875C311.233 279.186 294.233 311.129 264.489 316.232C240.335 320.376 218.841 320.487 195.24 316.355C166.465 311.319 150.314 280.576 160.978 253.38C168.398 234.455 177.013 218.186 188.655 202.248Z" fill="#F2F2F2"/>
<path d="M344.536 199.286C344.536 212.933 333.473 223.996 319.826 223.996C306.18 223.996 295.117 212.933 295.117 199.286C295.117 185.639 306.18 174.576 319.826 174.576C333.473 174.576 344.536 185.639 344.536 199.286Z" fill="black"/>
<path d="M162.785 199.286C162.785 212.933 151.722 223.996 138.075 223.996C124.428 223.996 113.365 212.933 113.365 199.286C113.365 185.639 124.428 174.576 138.075 174.576C151.722 174.576 162.785 185.639 162.785 199.286Z" fill="black"/>
<path d="M235.477 251.062C232.148 254.75 226.339 254.402 223.254 250.508C216.088 241.461 212.205 234.717 209.208 226.661C207.556 222.223 210.153 217.362 214.747 216.212C225.404 213.545 233.491 213.459 243.779 216.168C248.211 217.334 250.671 222.016 249.272 226.381C246.076 236.353 242.395 243.398 235.477 251.062Z" fill="black"/>
<path fill-rule="evenodd" clip-rule="evenodd" d="M229.955 246.233C232.927 246.233 235.336 248.697 235.336 251.736V271.186C245.807 287.341 269.635 286.466 278.794 269.106L280.942 265.034C282.354 262.359 285.618 261.361 288.234 262.804C290.849 264.248 291.825 267.586 290.414 270.261L288.266 274.333C276.249 297.109 246.502 299.959 230.235 282.275C215.35 300.507 186.258 299.83 172.751 278.626L167.672 270.652C166.05 268.105 166.753 264.695 169.243 263.036C171.734 261.377 175.068 262.097 176.69 264.644L181.769 272.618C192.079 288.804 215.365 287.9 224.574 271.376V251.736C224.574 248.697 226.983 246.233 229.955 246.233Z" fill="black"/>
</svg>
