<svg width="460" height="387" viewBox="0 0 460 387" fill="none" xmlns="http://www.w3.org/2000/svg">
<path fill-rule="evenodd" clip-rule="evenodd" d="M231.007 376.933C342.906 376.933 433.618 294.766 433.618 193.408C433.618 174.901 430.593 157.033 424.968 140.189C440.502 128.067 450.491 109.169 450.491 87.9386C450.491 51.3566 420.835 21.701 384.253 21.701C367.236 21.701 351.717 28.1184 339.986 38.6652C308.518 20.4449 271.124 9.88379 231.007 9.88379C190.503 9.88379 152.774 20.6495 121.119 39.1943C109.321 28.3335 93.5703 21.701 76.2702 21.701C39.6882 21.701 10.0326 51.3566 10.0326 87.9386C10.0326 109.707 20.5333 129.022 36.7455 141.096C31.3127 157.675 28.3958 175.233 28.3958 193.408C28.3958 294.766 119.108 376.933 231.007 376.933Z" fill="white"/>
<path fill-rule="evenodd" clip-rule="evenodd" d="M443.892 87.9416C443.892 107.057 434.908 124.071 420.904 134.998L417.234 137.863L418.709 142.279C424.114 158.464 427.019 175.628 427.019 193.411C427.019 290.532 339.885 370.348 230.996 370.348C122.107 370.348 34.9734 290.532 34.9734 193.411C34.9734 175.946 37.7754 159.08 42.9955 143.151L44.4716 138.647L40.6701 135.816C26.0553 124.931 16.6102 107.54 16.6102 87.9416C16.6102 54.9981 43.3161 28.2922 76.2596 28.2922C91.8427 28.2922 106.017 34.259 116.647 44.0443L120.233 47.3457L124.439 44.8818C155.085 26.9281 191.664 16.4749 230.996 16.4749C269.953 16.4749 306.209 26.7294 336.674 44.3695L340.818 46.7692L344.38 43.5675C354.949 34.0657 368.914 28.2922 384.243 28.2922C417.186 28.2922 443.892 54.9981 443.892 87.9416ZM230.996 386.46C347.244 386.46 443.132 300.897 443.132 193.411C443.132 176.1 440.626 159.311 435.926 143.338C450.729 129.52 460.005 109.811 460.005 87.9416C460.005 46.0994 426.085 12.1796 384.243 12.1796C367.275 12.1796 351.594 17.7673 338.964 27.1938C307.298 10.1281 270.369 0.362305 230.996 0.362305C191.263 0.362305 154.02 10.3075 122.161 27.6637C109.426 17.9535 93.508 12.1796 76.2596 12.1796C34.4174 12.1796 0.497559 46.0994 0.497559 87.9416C0.497559 110.386 10.2664 130.553 25.7533 144.413C21.2552 160.065 18.8608 176.488 18.8608 193.411C18.8608 300.897 114.749 386.46 230.996 386.46ZM32.1771 145.914C32.5401 144.66 32.917 143.412 33.3079 142.168C33.3081 142.169 33.3083 142.169 33.3084 142.169C28.1899 158.451 25.4494 175.643 25.4494 193.412C25.4494 223.416 33.2451 251.73 47.0851 276.8C33.2449 251.729 25.4489 223.416 25.4489 193.411C25.4489 176.999 27.7868 161.08 32.1771 145.914ZM422.919 30.5815C411.878 23.1231 398.569 18.7682 384.243 18.7682C367.241 18.7682 351.665 24.906 339.621 35.0826C308.092 17.246 270.859 6.95091 230.997 6.95091C190.756 6.95091 153.196 17.442 121.478 35.5916C121.477 35.5915 121.477 35.5913 121.477 35.5911C122.596 34.9511 123.722 34.3205 124.855 33.6996C155.849 16.7146 192.175 6.9504 230.996 6.9504C269.433 6.9504 305.424 16.522 336.215 33.1966C337.357 33.8154 338.493 34.4439 339.621 35.0821C340.621 34.2368 341.646 33.4193 342.694 32.6309C354.262 23.9281 368.652 18.7677 384.243 18.7677C398.569 18.7677 411.878 23.1228 422.919 30.5815ZM119.603 34.0274C107.745 24.4832 92.667 18.7682 76.2602 18.7682C38.0564 18.7682 7.08619 49.7384 7.08619 87.9421C7.08619 103.927 12.5097 118.646 21.6128 130.358C12.5094 118.646 7.08566 103.927 7.08566 87.9416C7.08566 49.7379 38.0559 18.7677 76.2596 18.7677C92.1403 18.7677 106.776 24.1221 118.451 33.1205C118.838 33.4188 119.222 33.7211 119.603 34.0274ZM117.715 345.593C150.052 365.381 189.034 376.936 230.997 376.936C342.896 376.936 433.608 294.77 433.608 193.412C433.608 174.904 430.583 157.037 424.958 140.193C440.492 128.071 450.481 109.173 450.481 87.9421C450.481 78.1341 448.349 68.824 444.523 60.4499C448.349 68.8239 450.48 78.1338 450.48 87.9416C450.48 108.459 441.152 126.798 426.505 138.947C425.995 139.37 425.48 139.785 424.957 140.192C425.17 140.828 425.378 141.466 425.583 142.104C430.807 158.386 433.607 175.603 433.607 193.411C433.607 294.769 342.895 376.936 230.996 376.936C189.034 376.936 150.051 365.381 117.715 345.593Z" fill="#CFCFCF"/>
<path d="M142.482 87.9439C142.482 124.526 112.826 154.181 76.2444 154.181C39.6624 154.181 10.0068 124.526 10.0068 87.9439C10.0068 51.3619 39.6624 21.7063 76.2444 21.7063C112.826 21.7063 142.482 51.3619 142.482 87.9439Z" fill="white"/>
<path d="M116.34 87.9487C116.34 110.084 98.3958 128.029 76.2602 128.029C54.1246 128.029 36.1801 110.084 36.1801 87.9487C36.1801 65.8131 54.1246 47.8687 76.2602 47.8687C98.3958 47.8687 116.34 65.8131 116.34 87.9487Z" fill="#FFB7E2"/>
<path d="M450.485 87.9439C450.485 124.526 420.83 154.181 384.248 154.181C347.666 154.181 318.01 124.526 318.01 87.9439C318.01 51.3619 347.666 21.7063 384.248 21.7063C420.83 21.7063 450.485 51.3619 450.485 87.9439Z" fill="white"/>
<path d="M424.33 87.9487C424.33 110.084 406.385 128.029 384.25 128.029C362.114 128.029 344.17 110.084 344.17 87.9487C344.17 65.8131 362.114 47.8687 384.25 47.8687C406.385 47.8687 424.33 65.8131 424.33 87.9487Z" fill="#FFB7E2"/>
<path d="M433.616 193.408C433.616 294.766 342.904 376.932 231.005 376.932C119.106 376.932 28.394 294.766 28.394 193.408C28.394 92.0502 119.106 9.88354 231.005 9.88354C342.904 9.88354 433.616 92.0502 433.616 193.408Z" fill="white"/>
<path d="M189.678 203.135C210.124 175.144 251.91 177.793 272.111 205.962C284.025 222.576 292.923 237.595 300.225 253.128C313.159 280.64 296.034 312.819 266.071 317.959C241.739 322.134 220.086 322.245 196.311 318.084C167.325 313.01 151.055 282.041 161.796 254.644C169.271 235.579 177.95 219.19 189.678 203.135Z" fill="#F2F2F2"/>
<path d="M346.708 200.152C346.708 213.9 335.563 225.044 321.816 225.044C308.068 225.044 296.924 213.9 296.924 200.152C296.924 186.404 308.068 175.26 321.816 175.26C335.563 175.26 346.708 186.404 346.708 200.152Z" fill="black"/>
<path d="M163.618 200.152C163.618 213.9 152.473 225.044 138.725 225.044C124.978 225.044 113.833 213.9 113.833 200.152C113.833 186.404 124.978 175.26 138.725 175.26C152.473 175.26 163.618 186.404 163.618 200.152Z" fill="black"/>
<path opacity="0.6" d="M154.31 212.44C154.31 216.661 149.177 220.083 142.846 220.083C136.514 220.083 131.381 216.661 131.381 212.44C131.381 208.219 136.514 204.798 142.846 204.798C149.177 204.798 154.31 208.219 154.31 212.44Z" fill="white"/>
<path opacity="0.6" d="M127.56 208.619C127.56 210.729 125.85 212.44 123.739 212.44C121.629 212.44 119.918 210.729 119.918 208.619C119.918 206.509 121.629 204.798 123.739 204.798C125.85 204.798 127.56 206.509 127.56 208.619Z" fill="white"/>
<path opacity="0.6" d="M306.155 212.44C306.155 216.661 311.288 220.083 317.619 220.083C323.951 220.083 329.083 216.661 329.083 212.44C329.083 208.219 323.951 204.798 317.619 204.798C311.288 204.798 306.155 208.219 306.155 212.44Z" fill="white"/>
<path opacity="0.6" d="M332.904 208.619C332.904 210.729 334.615 212.44 336.726 212.44C338.836 212.44 340.547 210.729 340.547 208.619C340.547 206.509 338.836 204.798 336.726 204.798C334.615 204.798 332.904 206.509 332.904 208.619Z" fill="white"/>
<path d="M236.845 252.31C233.491 256.025 227.639 255.675 224.532 251.751C217.313 242.638 213.401 235.844 210.382 227.729C208.718 223.258 211.334 218.361 215.962 217.203C226.697 214.516 234.844 214.429 245.208 217.158C249.673 218.333 252.151 223.05 250.742 227.447C247.522 237.492 243.814 244.589 236.845 252.31Z" fill="black"/>
<path d="M103.263 177.524L96.9926 199.066L116.328 191.71L146.114 174.897L158.133 163.338L140.366 157.032L122.598 163.338L103.263 177.524Z" fill="white"/>
<path fill-rule="evenodd" clip-rule="evenodd" d="M164.596 166.9C165.814 168.777 165.28 171.287 163.403 172.505C152.996 179.261 125.378 193.903 97.3777 198.768C95.1725 199.151 93.0742 197.674 92.6911 195.469C92.3079 193.264 93.7849 191.166 95.9901 190.782C122.538 186.17 149.117 172.115 158.99 165.707C160.867 164.488 163.377 165.022 164.596 166.9Z" fill="#E4E4E4"/>
<path d="M357.142 177.524L363.413 199.066L344.078 191.71L314.292 174.897L302.273 163.338L320.04 157.032L337.807 163.338L357.142 177.524Z" fill="white"/>
<path fill-rule="evenodd" clip-rule="evenodd" d="M295.81 166.9C294.591 168.777 295.125 171.287 297.003 172.505C307.41 179.261 335.027 193.903 363.028 198.768C365.233 199.151 367.331 197.674 367.715 195.469C368.098 193.264 366.621 191.166 364.415 190.782C337.867 186.17 311.288 172.115 301.416 165.707C299.538 164.488 297.029 165.022 295.81 166.9Z" fill="#E4E4E4"/>
</svg>
