<svg width="381" height="402" viewBox="0 0 381 402" fill="none" xmlns="http://www.w3.org/2000/svg">
<path d="M380.013 211.381C380.013 316.129 295.098 401.044 190.35 401.044C85.6023 401.044 0.687439 316.129 0.687439 211.381C0.687439 106.634 85.6023 21.7188 190.35 21.7188C295.098 21.7188 380.013 106.634 380.013 211.381Z" fill="white"/>
<path fill-rule="evenodd" clip-rule="evenodd" d="M110.692 137.413C165.315 137.413 178.605 203.795 178.605 236.038H189.985H201.365C201.364 203.795 211.593 137.413 266.215 137.413C375.039 137.413 359.502 256.206 346.302 319.351C367.557 288.708 380.013 251.5 380.013 211.382C380.013 106.634 295.098 21.7188 190.35 21.7188C85.6023 21.7188 0.687439 106.634 0.687439 211.382C0.687439 247.915 11.0164 282.035 28.9132 310.982C16.3065 246.289 6.50959 137.413 110.692 137.413Z" fill="#2D3945"/>
<path d="M235.285 272.073C235.285 243.245 204.939 232.244 189.766 232.244C178.386 232.244 153.73 238.693 146.143 264.487C138.557 290.281 165.742 300.523 180.282 302.419C198.616 304.316 235.285 300.902 235.285 272.073Z" fill="#FAA419"/>
<path fill-rule="evenodd" clip-rule="evenodd" d="M165.86 280.176C166.622 277.127 169.712 275.274 172.76 276.036C180.146 277.883 185.324 278.711 190.346 278.711C195.369 278.711 200.547 277.883 207.933 276.036C210.981 275.274 214.071 277.127 214.833 280.176C215.595 283.225 213.741 286.314 210.693 287.076C202.906 289.023 196.704 290.091 190.346 290.091C183.989 290.091 177.787 289.023 170 287.076C166.952 286.314 165.098 283.225 165.86 280.176Z" fill="#F05929"/>
<path fill-rule="evenodd" clip-rule="evenodd" d="M220.844 7.37911C226.668 14.792 225.381 25.5229 217.968 31.3473L191.415 52.2102C184.002 58.0346 173.271 56.7469 167.447 49.334C161.623 41.9211 162.91 31.1902 170.323 25.3658L196.876 4.50293C204.289 -1.32146 215.02 -0.0337487 220.844 7.37911Z" fill="#2D3945"/>
<path fill-rule="evenodd" clip-rule="evenodd" d="M258.771 7.37911C264.595 14.792 263.308 25.5229 255.895 31.3473L229.342 52.2102C221.929 58.0346 211.198 56.7469 205.374 49.334C199.55 41.9211 200.837 31.1902 208.25 25.3658L234.803 4.50293C242.216 -1.32146 252.947 -0.0337487 258.771 7.37911Z" fill="#2D3945"/>
<path fill-rule="evenodd" clip-rule="evenodd" d="M95.795 203.04C109.819 185.365 129.826 187.432 141.195 194.077C144.115 195.784 145.098 199.535 143.392 202.455C141.685 205.375 137.934 206.359 135.014 204.652C127.4 200.201 114.632 199.005 105.39 210.653C103.288 213.303 99.4359 213.746 96.7862 211.644C94.1365 209.542 93.6927 205.69 95.795 203.04Z" fill="#2D3945"/>
<path fill-rule="evenodd" clip-rule="evenodd" d="M282.995 203.04C268.972 185.365 248.964 187.432 237.595 194.077C234.675 195.784 233.692 199.535 235.399 202.455C237.106 205.375 240.856 206.359 243.777 204.652C251.391 200.201 264.159 199.005 273.4 210.653C275.502 213.303 279.354 213.746 282.004 211.644C284.654 209.542 285.097 205.69 282.995 203.04Z" fill="#2D3945"/>
<ellipse cx="279.731" cy="262.348" rx="18.373" ry="11.1004" fill="#FF9E9E"/>
<ellipse cx="92.1695" cy="262.348" rx="18.373" ry="11.1004" fill="#FF9E9E"/>
</svg>
