<svg width="380" height="401" viewBox="0 0 380 401" fill="none" xmlns="http://www.w3.org/2000/svg">
<circle cx="190.217" cy="211.126" r="189.663" fill="white"/>
<path fill-rule="evenodd" clip-rule="evenodd" d="M110.559 137.158C165.182 137.158 176.941 203.54 176.941 235.783H188.321H199.701C199.7 203.54 211.46 137.158 266.083 137.158C374.906 137.158 359.369 255.95 346.17 319.095C367.424 288.452 379.88 251.244 379.88 211.126C379.88 106.379 294.965 21.4636 190.217 21.4636C85.4695 21.4636 0.554596 106.379 0.554596 211.126C0.554596 247.659 10.8835 281.779 28.7804 310.726C16.1737 246.033 6.37681 137.158 110.559 137.158Z" fill="#2D3945"/>
<circle cx="116.249" cy="207.333" r="28.4494" fill="#1C4572"/>
<circle cx="264.186" cy="207.333" r="28.4494" fill="#1C4572"/>
<path d="M235.151 271.818C235.151 242.99 204.805 231.989 189.632 231.989C178.252 231.989 153.596 238.438 146.009 264.232C138.423 290.026 165.608 300.268 180.149 302.164C198.483 304.061 235.151 300.647 235.151 271.818Z" fill="#FAA419"/>
<g opacity="0.6">
<path d="M129.525 226.299C129.525 230.489 124.43 233.886 118.145 233.886C111.861 233.886 106.766 230.489 106.766 226.299C106.766 222.109 111.861 218.713 118.145 218.713C124.43 218.713 129.525 222.109 129.525 226.299Z" fill="white"/>
<path d="M102.972 222.506C102.972 224.601 101.274 226.299 99.1792 226.299C97.0842 226.299 95.3859 224.601 95.3859 222.506C95.3859 220.411 97.0842 218.713 99.1792 218.713C101.274 218.713 102.972 220.411 102.972 222.506Z" fill="white"/>
</g>
<g opacity="0.6">
<path d="M250.909 226.299C250.909 230.489 256.004 233.886 262.289 233.886C268.574 233.886 273.669 230.489 273.669 226.299C273.669 222.109 268.574 218.713 262.289 218.713C256.004 218.713 250.909 222.109 250.909 226.299Z" fill="white"/>
<path d="M277.462 222.506C277.462 224.601 279.16 226.299 281.255 226.299C283.35 226.299 285.049 224.601 285.049 222.506C285.049 220.411 283.35 218.713 281.255 218.713C279.16 218.713 277.462 220.411 277.462 222.506Z" fill="white"/>
</g>
<path fill-rule="evenodd" clip-rule="evenodd" d="M220.709 7.12423C226.533 14.5371 225.246 25.268 217.833 31.0924L191.28 51.9553C183.867 57.7797 173.136 56.492 167.312 49.0791C161.487 41.6663 162.775 30.9353 170.188 25.1109L196.741 4.24805C204.154 -1.57634 214.885 -0.288631 220.709 7.12423Z" fill="#2D3945"/>
<path fill-rule="evenodd" clip-rule="evenodd" d="M258.641 7.12423C264.466 14.5371 263.178 25.268 255.765 31.0924L229.212 51.9553C221.8 57.7797 211.069 56.492 205.244 49.0791C199.42 41.6663 200.708 30.9353 208.121 25.1109L234.673 4.24805C242.086 -1.57634 252.817 -0.288631 258.641 7.12423Z" fill="#2D3945"/>
<path d="M82.6446 184.052L76.4197 205.436L95.613 198.134L125.181 181.444L137.112 169.97L119.475 163.711L101.838 169.97L82.6446 184.052Z" fill="white"/>
<path fill-rule="evenodd" clip-rule="evenodd" d="M143.528 173.506C144.738 175.37 144.208 177.861 142.344 179.071C132.013 185.777 104.598 200.312 76.8019 205.141C74.6128 205.522 72.5299 204.055 72.1495 201.866C71.7692 199.677 73.2354 197.594 75.4245 197.214C101.779 192.635 128.163 178.683 137.963 172.322C139.827 171.112 142.318 171.642 143.528 173.506Z" fill="#E4E4E4"/>
<path d="M300.524 184.052L306.749 205.436L287.556 198.134L257.988 181.444L246.057 169.97L263.694 163.711L281.331 169.97L300.524 184.052Z" fill="white"/>
<path fill-rule="evenodd" clip-rule="evenodd" d="M239.64 173.506C238.431 175.37 238.961 177.861 240.824 179.071C251.155 185.777 278.571 200.312 306.367 205.141C308.556 205.522 310.639 204.055 311.019 201.866C311.399 199.677 309.933 197.594 307.744 197.214C281.39 192.635 255.006 178.683 245.205 172.322C243.342 171.112 240.85 171.642 239.64 173.506Z" fill="#E4E4E4"/>
<path fill-rule="evenodd" clip-rule="evenodd" d="M165.731 284.78C166.493 287.828 169.582 289.682 172.631 288.92C180.017 287.073 185.195 286.245 190.217 286.245C195.24 286.245 200.417 287.073 207.804 288.92C210.852 289.682 213.941 287.828 214.704 284.78C215.466 281.731 213.612 278.642 210.564 277.88C202.777 275.933 196.575 274.865 190.217 274.865C183.86 274.865 177.658 275.933 169.871 277.88C166.822 278.642 164.969 281.731 165.731 284.78Z" fill="#F05929"/>
</svg>
