<svg width="380" height="401" viewBox="0 0 380 401" fill="none" xmlns="http://www.w3.org/2000/svg">
<circle cx="190.217" cy="210.898" r="189.663" fill="white"/>
<path fill-rule="evenodd" clip-rule="evenodd" d="M110.559 136.929C165.182 136.929 176.941 203.311 176.941 235.554H188.321H199.701C199.7 203.311 211.46 136.929 266.083 136.929C374.906 136.929 359.369 255.722 346.17 318.867C367.424 288.224 379.88 251.015 379.88 210.898C379.88 106.15 294.965 21.2351 190.217 21.2351C85.4695 21.2351 0.554596 106.15 0.554596 210.898C0.554596 247.43 10.8835 281.551 28.7804 310.497C16.1737 245.805 6.37677 136.929 110.559 136.929Z" fill="#2D3945"/>
<circle cx="116.249" cy="207.105" r="28.4494" fill="#1C4572"/>
<circle cx="264.186" cy="207.105" r="28.4494" fill="#1C4572"/>
<path d="M235.151 271.59C235.151 242.761 204.805 231.761 189.632 231.761C178.252 231.761 153.596 238.209 146.009 264.003C138.423 289.798 165.608 300.039 180.149 301.936C198.483 303.833 235.151 300.419 235.151 271.59Z" fill="#FAA419"/>
<path fill-rule="evenodd" clip-rule="evenodd" d="M220.709 6.89571C226.533 14.3086 225.246 25.0395 217.833 30.8639L191.28 51.7268C183.867 57.5512 173.136 56.2635 167.312 48.8506C161.487 41.4377 162.775 30.7068 170.188 24.8824L196.741 4.01953C204.154 -1.80486 214.885 -0.517147 220.709 6.89571Z" fill="#2D3945"/>
<path fill-rule="evenodd" clip-rule="evenodd" d="M258.641 6.89571C264.466 14.3086 263.178 25.0395 255.765 30.8639L229.212 51.7268C221.8 57.5512 211.069 56.2635 205.244 48.8506C199.42 41.4377 200.708 30.7068 208.121 24.8824L234.673 4.01953C242.086 -1.80486 252.817 -0.517147 258.641 6.89571Z" fill="#2D3945"/>
<path fill-rule="evenodd" clip-rule="evenodd" d="M165.731 280.176C166.493 277.127 169.582 275.274 172.631 276.036C180.017 277.883 185.195 278.711 190.217 278.711C195.24 278.711 200.417 277.883 207.804 276.036C210.852 275.274 213.941 277.127 214.704 280.176C215.466 283.225 213.612 286.314 210.564 287.076C202.777 289.023 196.575 290.091 190.217 290.091C183.86 290.091 177.658 289.023 169.871 287.076C166.822 286.314 164.969 283.225 165.731 280.176Z" fill="#F05929"/>
</svg>
