<svg width="380" height="381" viewBox="0 0 380 381" fill="none" xmlns="http://www.w3.org/2000/svg">
<circle cx="190.172" cy="190.414" r="189.663" fill="#808696"/>
<circle cx="116.203" cy="186.621" r="28.4494" fill="black"/>
<circle cx="264.14" cy="186.621" r="28.4494" fill="black"/>
<path fill-rule="evenodd" clip-rule="evenodd" d="M195.198 301.591C193.451 299.972 190.686 299.972 188.939 301.591C179.62 310.22 166.511 315.591 151.992 315.591C123.71 315.591 100.783 295.212 100.783 270.072C100.783 244.933 123.71 224.553 151.992 224.553C166.511 224.553 179.62 229.924 188.939 238.554C190.687 240.172 193.451 240.172 195.199 238.554C204.518 229.924 217.626 224.553 232.145 224.553C260.427 224.553 283.354 244.933 283.354 270.072C283.354 295.212 260.427 315.591 232.145 315.591C217.626 315.591 204.518 310.22 195.198 301.591Z" fill="#D9D9D9"/>
<path d="M198.266 278.221C194.031 282.842 186.459 282.402 182.497 277.568C175.397 268.901 171.28 262.155 168.103 254.402C165.872 248.959 169.256 242.932 175.237 241.592C186.136 239.15 194.745 239.075 205.292 241.544C211.067 242.896 214.27 248.7 212.395 254.065C209.045 263.654 205.133 270.73 198.266 278.221Z" fill="black"/>
<path fill-rule="evenodd" clip-rule="evenodd" d="M294.071 230.009C294.2 230.827 293.642 231.595 292.824 231.725C264.263 236.234 238.291 249.91 228.936 256.147C228.247 256.607 227.316 256.42 226.856 255.731C226.397 255.042 226.583 254.11 227.272 253.651C236.883 247.244 263.259 233.355 292.356 228.761C293.174 228.632 293.942 229.191 294.071 230.009Z" fill="black"/>
<path fill-rule="evenodd" clip-rule="evenodd" d="M299.761 250.872C299.89 251.69 299.332 252.458 298.513 252.587C284.155 254.854 269.991 258.003 258.247 261.367C246.444 264.748 237.258 268.301 232.73 271.32C232.04 271.78 231.109 271.593 230.649 270.904C230.19 270.215 230.376 269.283 231.065 268.824C236.02 265.521 245.611 261.866 257.421 258.483C269.29 255.083 283.575 251.909 298.046 249.624C298.864 249.495 299.632 250.053 299.761 250.872Z" fill="black"/>
<path fill-rule="evenodd" clip-rule="evenodd" d="M80.5823 230.009C80.4531 230.827 81.0117 231.595 81.83 231.725C110.391 236.234 136.362 249.91 145.717 256.147C146.407 256.607 147.338 256.42 147.797 255.731C148.257 255.042 148.071 254.11 147.381 253.651C137.77 247.244 111.395 233.355 82.2979 228.761C81.4796 228.632 80.7115 229.191 80.5823 230.009Z" fill="black"/>
<path fill-rule="evenodd" clip-rule="evenodd" d="M74.8925 250.872C74.7633 251.69 75.3219 252.458 76.1402 252.587C90.4982 254.854 104.663 258.003 116.407 261.367C128.21 264.748 137.395 268.301 141.924 271.32C142.613 271.78 143.545 271.593 144.004 270.904C144.464 270.215 144.277 269.283 143.588 268.824C138.634 265.521 129.043 261.866 117.233 258.483C105.364 255.083 91.0787 251.909 76.6081 249.624C75.7898 249.495 75.0217 250.053 74.8925 250.872Z" fill="black"/>
<path fill-rule="evenodd" clip-rule="evenodd" d="M191.048 273.865C193.588 273.865 195.648 275.962 195.648 278.547V295.092C204.597 308.835 224.964 308.091 232.793 293.323L234.629 289.859C235.835 287.584 238.625 286.734 240.861 287.962C243.096 289.19 243.931 292.03 242.725 294.306L240.888 297.769C230.618 317.144 205.192 319.568 191.288 304.525C178.565 320.035 153.698 319.459 142.154 301.421L137.812 294.638C136.426 292.471 137.027 289.571 139.156 288.16C141.284 286.748 144.134 287.361 145.52 289.527L149.862 296.31C158.674 310.079 178.577 309.31 186.448 295.254V278.547C186.448 275.962 188.508 273.865 191.048 273.865Z" fill="black"/>
</svg>
