<svg width="380" height="381" viewBox="0 0 380 381" fill="none" xmlns="http://www.w3.org/2000/svg">
<circle cx="190.172" cy="190.642" r="189.663" fill="#808696"/>
<circle cx="116.203" cy="186.849" r="28.4494" fill="black"/>
<circle cx="264.14" cy="186.849" r="28.4494" fill="black"/>
<g opacity="0.6">
<path d="M250.864 205.816C250.864 210.005 255.959 213.402 262.243 213.402C268.528 213.402 273.623 210.005 273.623 205.816C273.623 201.626 268.528 198.229 262.243 198.229C255.959 198.229 250.864 201.626 250.864 205.816Z" fill="white"/>
<path d="M277.416 202.022C277.416 204.117 279.115 205.816 281.21 205.816C283.305 205.816 285.003 204.117 285.003 202.022C285.003 199.927 283.305 198.229 281.21 198.229C279.115 198.229 277.416 199.927 277.416 202.022Z" fill="white"/>
</g>
<g opacity="0.6">
<path d="M133.273 205.816C133.273 210.005 128.178 213.402 121.893 213.402C115.608 213.402 110.513 210.005 110.513 205.816C110.513 201.626 115.608 198.229 121.893 198.229C128.178 198.229 133.273 201.626 133.273 205.816Z" fill="white"/>
<path d="M106.72 202.022C106.72 204.117 105.022 205.816 102.927 205.816C100.832 205.816 99.1335 204.117 99.1335 202.022C99.1335 199.927 100.832 198.229 102.927 198.229C105.022 198.229 106.72 199.927 106.72 202.022Z" fill="white"/>
</g>
<path fill-rule="evenodd" clip-rule="evenodd" d="M232.145 315.82C260.427 315.82 283.354 295.44 283.354 270.301C283.354 245.161 260.427 224.782 232.145 224.782C217.626 224.782 204.518 230.153 195.198 238.782C193.451 240.401 190.687 240.401 188.939 238.782C179.62 230.153 166.511 224.782 151.992 224.782C123.71 224.782 100.783 245.161 100.783 270.301C100.783 295.44 123.71 315.82 151.992 315.82C166.511 315.82 179.62 310.449 188.939 301.819C190.687 300.201 193.451 300.201 195.199 301.819C204.518 310.449 217.626 315.82 232.145 315.82Z" fill="#D9D9D9"/>
<path d="M198.266 278.45C194.031 283.07 186.459 282.631 182.497 277.796C175.397 269.13 171.28 262.384 168.103 254.631C165.872 249.187 169.256 243.161 175.237 241.821C186.136 239.379 194.745 239.303 205.292 241.773C211.067 243.125 214.27 248.928 212.395 254.294C209.045 263.883 205.133 270.958 198.266 278.45Z" fill="black"/>
<path fill-rule="evenodd" clip-rule="evenodd" d="M294.071 230.238C294.2 231.056 293.642 231.824 292.824 231.953C264.263 236.463 238.291 250.139 228.936 256.376C228.247 256.835 227.316 256.649 226.856 255.96C226.397 255.271 226.583 254.339 227.272 253.88C236.883 247.472 263.259 233.584 292.356 228.99C293.174 228.861 293.942 229.419 294.071 230.238Z" fill="black"/>
<path fill-rule="evenodd" clip-rule="evenodd" d="M299.761 251.101C299.89 251.919 299.332 252.687 298.513 252.816C284.155 255.083 269.991 258.231 258.247 261.596C246.444 264.977 237.258 268.53 232.73 271.549C232.04 272.008 231.109 271.822 230.649 271.133C230.19 270.443 230.376 269.512 231.065 269.053C236.02 265.75 245.611 262.095 257.421 258.712C269.29 255.311 283.575 252.138 298.046 249.853C298.864 249.724 299.632 250.282 299.761 251.101Z" fill="black"/>
<path fill-rule="evenodd" clip-rule="evenodd" d="M80.5823 230.238C80.4531 231.056 81.0117 231.824 81.83 231.953C110.391 236.463 136.362 250.139 145.717 256.376C146.407 256.835 147.338 256.649 147.797 255.96C148.257 255.271 148.071 254.339 147.381 253.88C137.77 247.472 111.395 233.584 82.2979 228.99C81.4796 228.861 80.7115 229.419 80.5823 230.238Z" fill="black"/>
<path fill-rule="evenodd" clip-rule="evenodd" d="M74.8925 251.101C74.7633 251.919 75.3219 252.687 76.1402 252.816C90.4982 255.083 104.663 258.231 116.407 261.596C128.21 264.977 137.395 268.53 141.924 271.549C142.613 272.008 143.545 271.822 144.004 271.133C144.464 270.443 144.277 269.512 143.588 269.053C138.634 265.75 129.043 262.095 117.233 258.712C105.364 255.311 91.0787 252.138 76.6081 249.853C75.7898 249.724 75.0217 250.282 74.8925 251.101Z" fill="black"/>
<path d="M82.5991 167.362L76.3743 188.746L95.5675 181.444L125.135 164.754L137.066 153.279L119.429 147.02L101.792 153.279L82.5991 167.362Z" fill="#808696"/>
<path fill-rule="evenodd" clip-rule="evenodd" d="M143.483 156.815C144.692 158.679 144.162 161.17 142.299 162.38C131.968 169.086 104.552 183.621 76.7564 188.451C74.5674 188.831 72.4845 187.365 72.1041 185.176C71.7237 182.987 73.19 180.904 75.3791 180.523C101.733 175.944 128.118 161.993 137.918 155.631C139.782 154.421 142.273 154.952 143.483 156.815Z" fill="#535967"/>
<path d="M296.685 167.361L302.91 188.746L283.717 181.444L254.149 164.753L242.218 153.279L259.855 147.02L277.492 153.279L296.685 167.361Z" fill="#808696"/>
<path fill-rule="evenodd" clip-rule="evenodd" d="M235.801 156.815C234.592 158.679 235.122 161.17 236.985 162.38C247.316 169.086 274.732 183.621 302.528 188.45C304.717 188.831 306.8 187.364 307.18 185.175C307.56 182.986 306.094 180.903 303.905 180.523C277.551 175.944 251.167 161.992 241.366 155.631C239.503 154.421 237.011 154.951 235.801 156.815Z" fill="#535967"/>
</svg>
