<svg width="380" height="380" viewBox="0 0 380 380" fill="none" xmlns="http://www.w3.org/2000/svg">
<path d="M379.835 190.235C379.835 294.983 294.92 379.897 190.172 379.897C85.424 379.897 0.509155 294.983 0.509155 190.235C0.509155 85.4869 85.424 0.572021 190.172 0.572021C294.92 0.572021 379.835 85.4869 379.835 190.235Z" fill="#808696"/>
<path fill-rule="evenodd" clip-rule="evenodd" d="M205.303 308.664C197.38 304.321 186.76 304.321 178.837 308.664C171.032 312.943 161.837 315.412 151.993 315.412C123.711 315.412 100.784 295.033 100.784 269.893C100.784 244.754 123.711 224.374 151.993 224.374C161.837 224.374 171.032 226.843 178.837 231.122C186.76 235.465 197.38 235.465 205.303 231.122C213.108 226.843 222.303 224.374 232.147 224.374C260.429 224.374 283.356 244.754 283.356 269.893C283.356 295.033 260.429 315.412 232.147 315.412C222.303 315.412 213.108 312.943 205.303 308.664Z" fill="#D9D9D9"/>
<ellipse cx="311.838" cy="249.372" rx="17.4849" ry="10.5638" fill="#FF9E9E"/>
<ellipse cx="67.7735" cy="249.372" rx="17.4849" ry="10.5638" fill="#FF9E9E"/>
<path d="M198.271 278.042C194.036 282.663 186.463 282.223 182.502 277.389C175.402 268.722 171.285 261.976 168.107 254.223C165.877 248.78 169.26 242.753 175.242 241.413C186.141 238.971 194.749 238.896 205.297 241.365C211.072 242.717 214.275 248.521 212.4 253.886C209.05 263.475 205.138 270.551 198.271 278.042Z" fill="black"/>
<path fill-rule="evenodd" clip-rule="evenodd" d="M191.05 273.687C193.591 273.687 195.65 275.783 195.65 278.368V294.913C204.599 308.656 224.966 307.912 232.795 293.144L234.631 289.68C235.837 287.405 238.627 286.556 240.863 287.783C243.099 289.011 243.933 291.851 242.727 294.127L240.891 297.59C230.62 316.965 205.194 319.389 191.29 304.346C178.567 319.856 153.7 319.28 142.156 301.242L137.814 294.459C136.428 292.292 137.029 289.392 139.158 287.981C141.286 286.569 144.136 287.182 145.522 289.348L149.864 296.131C158.676 309.9 178.579 309.131 186.451 295.075V278.368C186.451 275.783 188.51 273.687 191.05 273.687Z" fill="black"/>
<path fill-rule="evenodd" clip-rule="evenodd" d="M89.2662 188.9C105.083 168.965 127.65 171.296 140.472 178.791C143.766 180.717 144.875 184.947 142.95 188.241C141.025 191.534 136.794 192.644 133.501 190.719C124.913 185.699 110.512 184.35 100.089 197.487C97.7176 200.476 93.3727 200.976 90.3842 198.605C87.3956 196.234 86.8951 191.889 89.2662 188.9Z" fill="black"/>
<path fill-rule="evenodd" clip-rule="evenodd" d="M291.026 188.9C275.209 168.965 252.642 171.296 239.82 178.791C236.526 180.717 235.417 184.947 237.342 188.241C239.267 191.534 243.498 192.644 246.791 190.719C255.379 185.699 269.78 184.35 280.203 197.487C282.574 200.476 286.919 200.976 289.908 198.605C292.896 196.234 293.397 191.889 291.026 188.9Z" fill="black"/>
<path fill-rule="evenodd" clip-rule="evenodd" d="M298.071 223.238C298.2 224.056 297.642 224.824 296.824 224.954C268.263 229.463 242.291 243.139 232.936 249.376C232.247 249.836 231.316 249.649 230.856 248.96C230.397 248.271 230.583 247.34 231.272 246.88C240.883 240.473 267.259 226.584 296.356 221.99C297.174 221.861 297.942 222.42 298.071 223.238Z" fill="black"/>
<path fill-rule="evenodd" clip-rule="evenodd" d="M303.761 244.1C303.89 244.919 303.332 245.687 302.513 245.816C288.155 248.083 273.991 251.231 262.247 254.596C250.444 257.977 241.258 261.529 236.73 264.549C236.04 265.008 235.109 264.822 234.649 264.133C234.19 263.443 234.376 262.512 235.065 262.052C240.02 258.75 249.611 255.095 261.421 251.712C273.29 248.311 287.575 245.137 302.046 242.853C302.864 242.723 303.632 243.282 303.761 244.1Z" fill="black"/>
<path fill-rule="evenodd" clip-rule="evenodd" d="M84.5823 223.238C84.4531 224.056 85.0117 224.824 85.83 224.954C114.391 229.463 140.362 243.139 149.717 249.376C150.407 249.836 151.338 249.649 151.797 248.96C152.257 248.271 152.071 247.34 151.381 246.88C141.77 240.473 115.395 226.584 86.2979 221.99C85.4796 221.861 84.7115 222.42 84.5823 223.238Z" fill="black"/>
<path fill-rule="evenodd" clip-rule="evenodd" d="M78.8925 244.1C78.7633 244.919 79.3219 245.687 80.1402 245.816C94.4982 248.083 108.663 251.231 120.407 254.596C132.21 257.977 141.395 261.529 145.924 264.549C146.613 265.008 147.545 264.822 148.004 264.133C148.464 263.443 148.277 262.512 147.588 262.052C142.634 258.75 133.043 255.095 121.233 251.712C109.364 248.311 95.0787 245.137 80.6081 242.853C79.7898 242.723 79.0217 243.282 78.8925 244.1Z" fill="black"/>
</svg>
