<svg width="532" height="393" viewBox="0 0 532 393" fill="none" xmlns="http://www.w3.org/2000/svg">
<ellipse cx="468.755" cy="246.762" rx="63.1383" ry="72.8876" fill="#BD855C"/>
<ellipse cx="468.755" cy="246.762" rx="38.0687" ry="44.1039" fill="#361E11"/>
<ellipse cx="63.1383" cy="72.8876" rx="63.1383" ry="72.8876" transform="matrix(-1 0 0 1 127.065 173.874)" fill="#BD855C"/>
<ellipse cx="38.0687" cy="44.1039" rx="38.0687" ry="44.1039" transform="matrix(-1 0 0 1 101.996 202.658)" fill="#361E11"/>
<ellipse cx="265.877" cy="200.336" rx="223.305" ry="191.736" fill="#BD855C"/>
<path fill-rule="evenodd" clip-rule="evenodd" d="M242.167 198.344V172.606C242.167 158.337 238.062 120.963 200.22 109.288C162.378 97.6141 108.838 118.443 62.346 151.304L51.9251 161.989C45.2448 178.365 41.6429 195.793 41.6429 213.871C41.6429 309.212 141.828 386.501 265.412 386.501C388.997 386.501 489.182 309.212 489.182 213.871C489.182 196.363 485.803 179.464 479.522 163.541L468.479 152.217C421.987 119.356 368.447 98.5274 330.605 110.202C292.763 121.876 288.658 159.25 288.658 173.519V199.257C279.922 195.472 272.028 194.209 265.412 194.295V193.382C258.796 193.296 250.903 194.559 242.167 198.344Z" fill="#F6D1A6"/>
<ellipse cx="59.2494" cy="80.7954" rx="59.2494" ry="80.7954" transform="matrix(-0.514903 -0.857248 -0.857248 0.514903 248.164 199.319)" fill="#AF7D4E"/>
<ellipse cx="383.306" cy="190.13" rx="59.2494" ry="80.7954" transform="rotate(-59.009 383.306 190.13)" fill="#AF7D4E"/>
<circle cx="360.584" cy="179.909" r="27.3909" fill="#3E1E00"/>
<circle cx="172.098" cy="179.909" r="27.3909" fill="#3E1E00"/>
<path d="M274.109 229.903C269.687 235.092 261.656 234.598 257.495 229.197C251.078 220.87 247.209 214.228 244.214 206.751C241.798 200.719 245.392 193.99 251.731 192.556C261.783 190.28 269.904 190.211 279.646 192.507C285.768 193.95 289.168 200.432 287.145 206.388C284.008 215.624 280.324 222.611 274.109 229.903Z" fill="#3E1E00"/>
<path d="M210.167 15.0996L224.094 42.9547" stroke="#473121" stroke-width="16" stroke-linecap="round"/>
<path d="M321.123 15.0996L307.195 42.9547" stroke="#473121" stroke-width="16" stroke-linecap="round"/>
<path d="M265.877 8.6001V46.2045" stroke="#473121" stroke-width="16" stroke-linecap="round"/>
<path d="M205.574 193.587C181.407 197.38 166.574 197.198 137.265 191.242L156.684 223.121L183.521 222.772L205.574 193.587Z" fill="#AF7D4E"/>
<path d="M395.574 193.587C371.407 197.38 356.574 197.198 327.265 191.242L346.684 223.121L373.521 222.772L395.574 193.587Z" fill="#AF7D4E"/>
<path d="M385.118 88.7537L381.787 81.1103L386.928 78.9213C389.198 77.9459 391.029 77.0773 392.421 76.3157C393.812 75.554 394.863 74.7344 395.574 73.857C396.291 72.9354 396.755 71.8573 396.965 70.6226C397.249 68.9469 396.868 67.4757 395.821 66.2089C394.819 64.9498 393.455 64.1736 391.728 63.8802C390.319 63.6409 388.786 63.7207 387.129 64.1196C385.524 64.4822 383.667 65.3689 381.557 66.7799L379.526 68.0001L375.118 60.9221L376.547 59.94C378.952 58.1708 381.539 56.8409 384.309 55.9504C387.124 55.0676 390.19 54.908 393.507 55.4716C396.461 55.9735 398.969 57.0348 401.032 58.6555C403.094 60.2762 404.559 62.2492 405.426 64.5742C406.339 66.9071 406.575 69.3743 406.133 71.976C405.796 73.9603 405.114 75.7727 404.087 77.413C403.105 79.061 401.605 80.5983 399.586 82.0246C397.575 83.4069 394.912 84.7693 391.598 86.1118L385.118 88.7537ZM384.406 103.264C382.77 102.986 381.458 102.174 380.471 100.827C379.485 99.4793 379.126 98.012 379.396 96.4245C379.673 94.7929 380.5 93.5043 381.876 92.5585C383.253 91.6127 384.759 91.2788 386.395 91.5568C388.076 91.8424 389.41 92.6589 390.397 94.0061C391.384 95.3534 391.739 96.8428 391.461 98.4744C391.192 100.062 390.369 101.328 388.992 102.274C387.616 103.22 386.087 103.55 384.406 103.264Z" fill="#3E1E00"/>
<path fill-rule="evenodd" clip-rule="evenodd" d="M240.016 277.511C240.016 273.759 243.058 270.717 246.81 270.717H285.872C289.624 270.717 292.666 273.759 292.666 277.511C292.666 281.263 289.624 284.304 285.872 284.304H246.81C243.058 284.304 240.016 281.263 240.016 277.511Z" fill="#361E11"/>
</svg>
