<svg width="553" height="422" viewBox="0 0 553 422" fill="none" xmlns="http://www.w3.org/2000/svg">
<ellipse cx="484.341" cy="275.196" rx="68" ry="78.5" fill="#BD855C"/>
<ellipse cx="484.341" cy="275.196" rx="41" ry="47.5" fill="#361E11"/>
<ellipse cx="68" cy="78.5" rx="68" ry="78.5" transform="matrix(-1 0 0 1 136.341 196.696)" fill="#BD855C"/>
<ellipse cx="41" cy="47.5" rx="41" ry="47.5" transform="matrix(-1 0 0 1 109.341 227.696)" fill="#361E11"/>
<ellipse cx="275.841" cy="215.196" rx="240.5" ry="206.5" fill="#BD855C"/>
<path fill-rule="evenodd" clip-rule="evenodd" d="M250.305 213.05V185.331C250.305 169.963 245.884 129.711 205.128 117.138C164.372 104.565 106.71 126.998 56.6381 162.389L45.4147 173.897C38.22 191.533 34.3408 210.304 34.3408 229.774C34.3408 332.456 142.24 415.696 275.341 415.696C408.441 415.696 516.341 332.456 516.341 229.774C516.341 210.918 512.702 192.717 505.937 175.568L494.044 163.373C443.972 127.981 386.31 105.548 345.553 118.122C304.797 130.695 300.377 170.947 300.377 186.314V214.034C290.968 209.958 282.466 208.598 275.341 208.69V207.707C268.215 207.614 259.714 208.974 250.305 213.05Z" fill="#F6D1A6"/>
<path d="M276.341 331.696C265.541 331.696 250.507 305.03 244.341 291.696L272.341 275.696H280.341L310.841 289.696C304.174 303.03 287.141 331.696 276.341 331.696Z" fill="#BD855C"/>
<path d="M269.846 298.467C265.833 298.693 259.659 292.104 257.841 290.196C260.141 284.436 267.87 275.596 274.255 274.998C280.639 274.399 291.95 284.532 296.808 289.673C295.74 292.54 292.154 298.705 286.351 300.427C280.548 302.15 277.733 296.046 277.05 292.779C276.321 294.581 273.86 298.241 269.846 298.467Z" fill="white"/>
<ellipse cx="63.8117" cy="87.0167" rx="63.8117" ry="87.0167" transform="matrix(-0.514903 -0.857248 -0.857248 0.514903 256.764 214.101)" fill="#AF7D4E"/>
<ellipse cx="402.312" cy="204.204" rx="63.8117" ry="87.0167" transform="rotate(-59.009 402.312 204.204)" fill="#AF7D4E"/>
<path d="M284.08 247.768C279.601 252.908 271.593 252.42 267.404 247.041C259.894 237.4 255.541 229.896 252.181 221.27C249.822 215.215 253.4 208.511 259.725 207.02C271.252 204.304 280.356 204.219 291.51 206.967C297.617 208.471 301.004 214.927 299.022 220.896C295.479 231.563 291.342 239.434 284.08 247.768Z" fill="#3E1E00"/>
<path d="M276.389 248.696V269.709M276.389 269.709V269.709C265.509 291.055 235.61 292.642 222.532 272.567L217.341 264.598M276.389 269.709V269.709C288.824 290.794 319.521 290.21 331.145 268.667L333.341 264.598" stroke="#3E1E00" stroke-width="11" stroke-linecap="round"/>
<path d="M215.841 15.6963L230.841 45.6963" stroke="#473121" stroke-width="16" stroke-linecap="round"/>
<path d="M335.341 15.6963L320.341 45.6963" stroke="#473121" stroke-width="16" stroke-linecap="round"/>
<path d="M275.841 8.69629V49.1963" stroke="#473121" stroke-width="16" stroke-linecap="round"/>
<path fill-rule="evenodd" clip-rule="evenodd" d="M153.207 187.21C169.964 166.09 193.735 168.506 207.36 176.47C209.267 177.585 209.909 180.034 208.794 181.942C207.679 183.849 205.23 184.491 203.322 183.376C192.15 176.846 173.108 174.999 159.475 192.182C158.101 193.913 155.585 194.203 153.855 192.83C152.124 191.457 151.834 188.941 153.207 187.21Z" fill="#361E11"/>
<path fill-rule="evenodd" clip-rule="evenodd" d="M396.474 187.21C379.717 166.09 355.946 168.506 342.322 176.47C340.415 177.585 339.773 180.034 340.887 181.942C342.002 183.849 344.452 184.491 346.359 183.376C357.531 176.846 376.574 174.999 390.207 192.182C391.58 193.913 394.096 194.203 395.827 192.83C397.557 191.457 397.847 188.941 396.474 187.21Z" fill="#361E11"/>
</svg>
