<svg width="532" height="392" viewBox="0 0 532 392" fill="none" xmlns="http://www.w3.org/2000/svg">
<path d="M531.893 246.599C531.893 286.854 503.625 319.487 468.755 319.487C433.885 319.487 405.617 286.854 405.617 246.599C405.617 206.345 433.885 173.712 468.755 173.712C503.625 173.712 531.893 206.345 531.893 246.599Z" fill="#BD855C"/>
<path d="M506.823 246.599C506.823 270.957 489.78 290.703 468.755 290.703C447.73 290.703 430.686 270.957 430.686 246.599C430.686 222.241 447.73 202.495 468.755 202.495C489.78 202.495 506.823 222.241 506.823 246.599Z" fill="#361E11"/>
<path d="M0.788879 246.599C0.788879 286.854 29.0568 319.487 63.9272 319.487C98.7975 319.487 127.065 286.854 127.065 246.599C127.065 206.345 98.7975 173.712 63.9272 173.712C29.0568 173.712 0.788879 206.345 0.788879 246.599Z" fill="#BD855C"/>
<path d="M25.8584 246.599C25.8584 270.957 42.9023 290.703 63.9271 290.703C84.9518 290.703 101.996 270.957 101.996 246.599C101.996 222.241 84.9518 202.495 63.9271 202.495C42.9023 202.495 25.8584 222.241 25.8584 246.599Z" fill="#361E11"/>
<path d="M489.182 200.174C489.182 306.067 389.205 391.91 265.877 391.91C142.549 391.91 42.5715 306.067 42.5715 200.174C42.5715 94.2812 142.549 8.43799 265.877 8.43799C389.205 8.43799 489.182 94.2812 489.182 200.174Z" fill="#BD855C"/>
<path fill-rule="evenodd" clip-rule="evenodd" d="M242.167 198.182V172.444C242.167 158.175 238.062 120.801 200.22 109.127C162.378 97.4523 108.838 118.281 62.346 151.142L51.9251 161.827C45.2448 178.203 41.6429 195.632 41.6429 213.709C41.6429 309.05 141.828 386.339 265.412 386.339C388.997 386.339 489.182 309.05 489.182 213.709C489.182 196.201 485.803 179.302 479.522 163.379L468.479 152.056C421.987 119.195 368.447 98.3656 330.605 110.04C292.763 121.714 288.658 159.088 288.658 173.357V199.095C279.922 195.31 272.028 194.047 265.412 194.133V193.22C258.796 193.134 250.903 194.397 242.167 198.182Z" fill="#F6D1A6"/>
<path d="M117.887 139.176C79.6346 162.152 62.2839 203.518 79.1328 231.569C95.9817 259.621 140.65 263.735 178.902 240.759C217.154 217.783 234.505 176.417 217.656 148.366C200.807 120.314 156.139 116.2 117.887 139.176Z" fill="#AF7D4E"/>
<path d="M413.814 139.176C452.066 162.152 469.417 203.518 452.568 231.569C435.719 259.621 391.051 263.735 352.798 240.759C314.546 217.783 297.195 176.417 314.044 148.366C330.893 120.314 375.562 116.2 413.814 139.176Z" fill="#AF7D4E"/>
<path d="M387.975 179.747C387.975 194.875 375.712 207.138 360.584 207.138C345.457 207.138 333.193 194.875 333.193 179.747C333.193 164.62 345.457 152.356 360.584 152.356C375.712 152.356 387.975 164.62 387.975 179.747Z" fill="#3E1E00"/>
<path d="M199.489 179.747C199.489 194.875 187.225 207.138 172.098 207.138C156.97 207.138 144.707 194.875 144.707 179.747C144.707 164.62 156.97 152.356 172.098 152.356C187.225 152.356 199.489 164.62 199.489 179.747Z" fill="#3E1E00"/>
<path d="M274.11 229.741C269.687 234.93 261.656 234.435 257.495 229.035C251.078 220.708 247.209 214.066 244.214 206.589C241.798 200.556 245.392 193.828 251.731 192.393C261.783 190.118 269.904 190.049 279.646 192.345C285.768 193.787 289.168 200.27 287.145 206.226C284.008 215.462 280.324 222.449 274.11 229.741Z" fill="#3E1E00"/>
<path fill-rule="evenodd" clip-rule="evenodd" d="M266.386 225.779C269.423 225.779 271.886 228.241 271.886 231.279V249.208C281.694 263.851 303.856 263.02 312.387 247.21L314.425 243.432C315.868 240.758 319.204 239.761 321.877 241.203C324.551 242.645 325.548 245.982 324.106 248.655L322.067 252.433C310.607 273.672 282.347 276.449 266.669 260.205C252.297 276.974 224.651 276.217 211.771 256.445L206.951 249.045C205.293 246.5 206.012 243.093 208.557 241.435C211.102 239.777 214.51 240.496 216.168 243.041L220.988 250.441C230.591 265.182 252.255 264.39 260.886 249.398V231.279C260.886 228.241 263.348 225.779 266.386 225.779Z" fill="#3E1E00"/>
<path fill-rule="evenodd" clip-rule="evenodd" d="M206.589 7.78213C210.541 5.80621 215.346 7.40801 217.322 11.3598L231.249 39.215C233.225 43.1668 231.624 47.9722 227.672 49.9481C223.72 51.924 218.914 50.3222 216.939 46.3704L203.011 18.5153C201.035 14.5634 202.637 9.75804 206.589 7.78213Z" fill="#473121"/>
<path fill-rule="evenodd" clip-rule="evenodd" d="M324.7 7.78213C320.749 5.80621 315.943 7.40801 313.967 11.3598L300.04 39.215C298.064 43.1668 299.666 47.9722 303.617 49.9481C307.569 51.924 312.375 50.3222 314.35 46.3704L328.278 18.5153C330.254 14.5634 328.652 9.75804 324.7 7.78213Z" fill="#473121"/>
<path fill-rule="evenodd" clip-rule="evenodd" d="M265.877 0.437988C270.295 0.437988 273.877 4.01971 273.877 8.43799V46.0424C273.877 50.4607 270.295 54.0424 265.877 54.0424C261.458 54.0424 257.877 50.4607 257.877 46.0424V8.43799C257.877 4.01971 261.458 0.437988 265.877 0.437988Z" fill="#473121"/>
</svg>
