<svg width="533" height="422" viewBox="0 0 533 422" fill="none" xmlns="http://www.w3.org/2000/svg">
<ellipse cx="464.823" cy="265.437" rx="68" ry="78.5" fill="#BD855C"/>
<ellipse cx="464.823" cy="265.437" rx="41" ry="47.5" fill="#361E11"/>
<ellipse cx="68" cy="78.5" rx="68" ry="78.5" transform="matrix(-1 0 0 1 136.823 186.937)" fill="#BD855C"/>
<ellipse cx="41" cy="47.5" rx="41" ry="47.5" transform="matrix(-1 0 0 1 109.823 217.937)" fill="#361E11"/>
<ellipse cx="266.323" cy="215.437" rx="240.5" ry="206.5" fill="#BD855C"/>
<path fill-rule="evenodd" clip-rule="evenodd" d="M240.788 241.291V185.571C240.788 170.204 236.367 139.952 195.611 127.378C154.855 114.805 97.1925 137.238 47.1207 172.629L31.3043 187.004C27.0664 200.809 24.8235 215.209 24.8235 230.014C24.8235 332.696 132.723 415.937 265.823 415.937C398.924 415.937 506.823 332.696 506.823 230.014C506.823 216.085 504.838 202.514 501.073 189.459L484.526 174.613C434.454 139.221 376.792 116.789 336.036 129.362C295.28 141.935 290.859 171.187 290.859 186.554V242.274C281.45 238.198 272.949 236.838 265.823 236.931V235.947C258.698 235.854 250.197 237.214 240.788 241.291Z" fill="#F6D1A6"/>
<ellipse cx="60.5453" cy="85.4366" rx="60.5453" ry="85.4366" transform="matrix(-0.542682 -0.839938 -0.873103 0.487535 247.247 225.645)" fill="#AF7D4E"/>
<ellipse cx="60.5453" cy="85.4366" rx="60.5453" ry="85.4366" transform="matrix(0.542682 -0.839938 0.873103 0.487535 285.343 225.645)" fill="#AF7D4E"/>
<circle cx="368.323" cy="213.437" r="29.5" fill="#3E1E00"/>
<ellipse opacity="0.6" cx="12.5" cy="8.5" rx="12.5" ry="8.5" transform="matrix(-1 0 0 1 379.823 222.937)" fill="white"/>
<circle opacity="0.6" cx="3" cy="3" r="3" transform="matrix(-1 0 0 1 388.823 226.937)" fill="white"/>
<circle cx="165.323" cy="213.437" r="29.5" fill="#3E1E00"/>
<ellipse opacity="0.6" cx="166.323" cy="231.437" rx="12.5" ry="8.5" fill="white"/>
<circle opacity="0.6" cx="147.823" cy="229.937" r="3" fill="white"/>
<path d="M274.563 273.008C270.084 278.148 262.075 277.66 257.886 272.281C250.377 262.641 246.023 255.136 242.663 246.511C240.304 240.455 243.883 233.751 250.208 232.26C261.735 229.544 270.838 229.46 281.993 232.207C288.1 233.711 291.487 240.167 289.505 246.136C285.962 256.804 281.824 264.675 274.563 273.008Z" fill="#3E1E00"/>
<path d="M206.323 15.9365L221.323 45.9365" stroke="#473121" stroke-width="16" stroke-linecap="round"/>
<path d="M325.823 15.9365L310.823 45.9365" stroke="#473121" stroke-width="16" stroke-linecap="round"/>
<path d="M266.323 8.93652V49.4365" stroke="#473121" stroke-width="16" stroke-linecap="round"/>
<path fill-rule="evenodd" clip-rule="evenodd" d="M267.561 315.119C257.002 314.97 245.893 318.54 230.764 326.934C228.832 328.006 226.398 327.309 225.326 325.377C224.254 323.446 224.951 321.011 226.883 319.939C242.535 311.255 255.094 306.942 267.674 307.12C280.233 307.298 292.236 311.947 306.751 319.932C308.687 320.997 309.393 323.429 308.328 325.364C307.264 327.3 304.831 328.006 302.896 326.941C288.748 319.159 278.141 315.269 267.561 315.119Z" fill="#361E11"/>
<path d="M132 190L126 210.5L144.5 203.5L173 187.5L184.5 176.5L167.5 170.5L150.5 176.5L132 190Z" fill="#AF7D4E"/>
<path fill-rule="evenodd" clip-rule="evenodd" d="M190.942 179.154C192.145 181.007 191.618 183.485 189.765 184.687C179.493 191.355 152.235 205.807 124.598 210.609C122.421 210.987 120.35 209.529 119.972 207.352C119.594 205.176 121.052 203.105 123.228 202.727C149.431 198.174 175.665 184.302 185.409 177.977C187.262 176.774 189.739 177.301 190.942 179.154Z" fill="#361E11"/>
<path d="M401.5 190L407.5 210.5L389 203.5L360.5 187.5L349 176.5L366 170.5L383 176.5L401.5 190Z" fill="#AF7D4E"/>
<path fill-rule="evenodd" clip-rule="evenodd" d="M342.558 179.154C341.355 181.007 341.882 183.485 343.735 184.687C354.007 191.355 381.265 205.807 408.902 210.609C411.079 210.987 413.15 209.529 413.528 207.352C413.906 205.176 412.448 203.105 410.272 202.727C384.069 198.174 357.835 184.302 348.091 177.977C346.238 176.774 343.761 177.301 342.558 179.154Z" fill="#361E11"/>
</svg>
