<svg width="388" height="397" viewBox="0 0 388 397" fill="none" xmlns="http://www.w3.org/2000/svg">
<path fill-rule="evenodd" clip-rule="evenodd" d="M374.112 112.083C361.557 98.324 340.226 97.3474 326.467 109.902L288.853 144.223C275.094 156.777 274.117 178.108 286.672 191.867C299.226 205.627 320.557 206.603 334.317 194.049L371.931 159.728C385.69 147.174 386.666 125.842 374.112 112.083Z" fill="#E6A92C"/>
<path fill-rule="evenodd" clip-rule="evenodd" d="M14.0586 112.083C26.613 98.324 47.9444 97.3474 61.7035 109.902L99.3175 144.223C113.077 156.777 114.053 178.108 101.499 191.867C88.9444 205.627 67.613 206.603 53.8538 194.049L16.2399 159.728C2.48072 147.174 1.50413 125.842 14.0586 112.083Z" fill="#E6A92C"/>
<path fill-rule="evenodd" clip-rule="evenodd" d="M141.408 25.6182C146.001 24.8527 150.345 27.9556 151.111 32.5487L158.137 74.7054C158.902 79.2986 155.799 83.6427 151.206 84.4082C146.613 85.1737 142.269 82.0708 141.503 77.4777L134.477 35.321C133.712 30.7278 136.815 26.3838 141.408 25.6182Z" fill="#E07F3A"/>
<circle cx="141.389" cy="24.0985" r="23.8888" fill="#E07F3A"/>
<path fill-rule="evenodd" clip-rule="evenodd" d="M248.167 25.6182C243.573 24.8527 239.229 27.9556 238.464 32.5487L231.438 74.7054C230.672 79.2986 233.775 83.6427 238.368 84.4082C242.961 85.1737 247.305 82.0708 248.071 77.4777L255.097 35.321C255.863 30.7278 252.76 26.3838 248.167 25.6182Z" fill="#E07F3A"/>
<circle cx="248.185" cy="24.0985" r="23.8888" fill="#E07F3A"/>
<ellipse cx="194.787" cy="225.045" rx="158.79" ry="171.437" fill="#EFBA4C"/>
<path fill-rule="evenodd" clip-rule="evenodd" d="M51.4487 298.907C88.8608 274.023 139.298 258.771 194.787 258.771C250.276 258.771 300.713 274.023 338.125 298.906C312.567 356.617 257.989 396.483 194.787 396.483C131.585 396.483 77.0069 356.617 51.4487 298.907Z" fill="#F9E2AE"/>
<path fill-rule="evenodd" clip-rule="evenodd" d="M239.582 305.321C241.699 307.419 241.683 310.805 239.547 312.884C226.579 325.509 211.299 331.931 195.833 331.841C180.379 331.752 165.336 325.164 152.82 312.867C150.694 310.779 150.694 307.393 152.82 305.304C154.946 303.216 158.393 303.216 160.519 305.304C171.302 315.897 183.697 321.075 195.898 321.146C208.087 321.216 220.681 316.193 231.883 305.287C234.019 303.208 237.466 303.223 239.582 305.321Z" fill="#211000"/>
<ellipse cx="7.02612" cy="12.647" rx="7.02612" ry="12.647" transform="matrix(-0.913545 -0.406737 -0.406737 0.913545 140.625 289.686)" fill="#CE9B60"/>
<ellipse cx="263.322" cy="298.381" rx="7.02612" ry="12.647" transform="rotate(-24 263.322 298.381)" fill="#CE9B60"/>
<path fill-rule="evenodd" clip-rule="evenodd" d="M110.266 209.9C126.083 189.965 148.65 192.296 161.472 199.791C164.766 201.717 165.875 205.947 163.95 209.241C162.025 212.534 157.794 213.644 154.5 211.719C145.913 206.699 131.512 205.35 121.089 218.487C118.717 221.476 114.373 221.976 111.384 219.605C108.395 217.234 107.895 212.889 110.266 209.9Z" fill="#211000"/>
<path fill-rule="evenodd" clip-rule="evenodd" d="M281.524 209.9C265.707 189.965 243.14 192.296 230.318 199.791C227.024 201.717 225.915 205.947 227.84 209.241C229.765 212.534 233.996 213.644 237.29 211.719C245.877 206.699 260.278 205.35 270.701 218.487C273.073 221.476 277.417 221.976 280.406 219.605C283.395 217.234 283.895 212.889 281.524 209.9Z" fill="#211000"/>
<ellipse cx="316.838" cy="260.372" rx="17.4849" ry="10.5638" fill="#FF9E9E"/>
<ellipse cx="72.7735" cy="260.372" rx="17.4849" ry="10.5638" fill="#FF9E9E"/>
</svg>
