<svg width="388" height="397" viewBox="0 0 388 397" fill="none" xmlns="http://www.w3.org/2000/svg">
<path fill-rule="evenodd" clip-rule="evenodd" d="M374.112 111.934C361.557 98.1751 340.226 97.1985 326.467 109.753L288.853 144.074C275.094 156.628 274.117 177.959 286.672 191.719C299.226 205.478 320.557 206.454 334.317 193.9L371.931 159.579C385.69 147.025 386.666 125.693 374.112 111.934Z" fill="#E6A92C"/>
<path fill-rule="evenodd" clip-rule="evenodd" d="M14.0586 111.934C26.613 98.1751 47.9444 97.1985 61.7035 109.753L99.3175 144.074C113.077 156.628 114.053 177.959 101.499 191.719C88.9444 205.478 67.613 206.454 53.8538 193.9L16.2399 159.579C2.48072 147.025 1.50413 125.693 14.0586 111.934Z" fill="#E6A92C"/>
<path fill-rule="evenodd" clip-rule="evenodd" d="M141.408 25.4695C146.001 24.704 150.345 27.8069 151.111 32.4001L158.137 74.5568C158.902 79.1499 155.799 83.494 151.206 84.2595C146.613 85.025 142.269 81.9221 141.503 77.329L134.477 35.1723C133.712 30.5791 136.815 26.2351 141.408 25.4695Z" fill="#E07F3A"/>
<circle cx="141.389" cy="23.9498" r="23.8888" fill="#E07F3A"/>
<path fill-rule="evenodd" clip-rule="evenodd" d="M248.167 25.4695C243.573 24.704 239.229 27.8069 238.464 32.4001L231.438 74.5568C230.672 79.1499 233.775 83.494 238.368 84.2595C242.961 85.025 247.305 81.9221 248.071 77.329L255.097 35.1723C255.863 30.5791 252.76 26.2351 248.167 25.4695Z" fill="#E07F3A"/>
<circle cx="248.185" cy="23.9498" r="23.8888" fill="#E07F3A"/>
<ellipse cx="194.787" cy="224.897" rx="158.79" ry="171.437" fill="#EFBA4C"/>
<path fill-rule="evenodd" clip-rule="evenodd" d="M51.4487 298.758C88.8608 273.874 139.298 258.622 194.787 258.622C250.276 258.622 300.713 273.874 338.125 298.758C312.567 356.468 257.989 396.334 194.787 396.334C131.585 396.334 77.0069 356.468 51.4487 298.758Z" fill="#F9E2AE"/>
<path fill-rule="evenodd" clip-rule="evenodd" d="M239.582 330.11C241.699 328.012 241.683 324.626 239.547 322.547C226.579 309.922 211.299 303.5 195.833 303.59C180.379 303.68 165.336 310.268 152.82 322.564C150.694 324.653 150.694 328.039 152.82 330.127C154.946 332.216 158.393 332.216 160.519 330.127C171.302 319.534 183.697 314.357 195.898 314.286C208.087 314.215 220.681 319.238 231.883 330.144C234.019 332.223 237.466 332.208 239.582 330.11Z" fill="#211000"/>
<circle cx="141.389" cy="224.896" r="21.0784" fill="#211000"/>
<ellipse cx="7.02612" cy="12.647" rx="7.02612" ry="12.647" transform="matrix(-0.913545 -0.406737 -0.406737 0.913545 140.625 289.537)" fill="#CE9B60"/>
<ellipse cx="263.322" cy="298.233" rx="7.02612" ry="12.647" transform="rotate(-24 263.322 298.233)" fill="#CE9B60"/>
<circle cx="250.996" cy="224.896" r="21.0784" fill="#211000"/>
<path d="M280.377 208.931L285.794 227.54L269.092 221.185L243.361 206.661L232.979 196.676L248.327 191.229L263.675 196.676L280.377 208.931Z" fill="#EFBA4C"/>
<path fill-rule="evenodd" clip-rule="evenodd" d="M227.395 199.753C226.342 201.375 226.804 203.543 228.425 204.595C237.416 210.431 261.273 223.08 285.462 227.283C287.367 227.614 289.18 226.338 289.511 224.433C289.842 222.528 288.566 220.715 286.661 220.384C263.727 216.399 240.766 204.258 232.238 198.722C230.616 197.67 228.448 198.131 227.395 199.753Z" fill="#CE9B60"/>
<path d="M112.016 208.931L106.599 227.54L123.302 221.185L149.032 206.661L159.415 196.676L144.067 191.229L128.719 196.676L112.016 208.931Z" fill="#EFBA4C"/>
<path fill-rule="evenodd" clip-rule="evenodd" d="M164.999 199.753C166.051 201.375 165.59 203.543 163.968 204.595C154.978 210.431 131.12 223.08 106.932 227.283C105.027 227.614 103.214 226.338 102.883 224.433C102.552 222.528 103.828 220.715 105.733 220.384C128.667 216.399 151.627 204.258 160.156 198.722C161.778 197.67 163.946 198.131 164.999 199.753Z" fill="#CE9B60"/>
<path opacity="0.6" d="M238.102 237.021C238.102 240.692 242.566 243.668 248.073 243.668C253.579 243.668 258.043 240.692 258.043 237.021C258.043 233.35 253.579 230.374 248.073 230.374C242.566 230.374 238.102 233.35 238.102 237.021Z" fill="white"/>
<path opacity="0.6" d="M154.415 237.021C154.415 240.692 149.951 243.668 144.444 243.668C138.938 243.668 134.474 240.692 134.474 237.021C134.474 233.35 138.938 230.374 144.444 230.374C149.951 230.374 154.415 233.35 154.415 237.021Z" fill="white"/>
<path opacity="0.6" d="M261.367 233.698C261.367 235.533 262.855 237.021 264.69 237.021C266.526 237.021 268.014 235.533 268.014 233.698C268.014 231.862 266.526 230.374 264.69 230.374C262.855 230.374 261.367 231.862 261.367 233.698Z" fill="white"/>
<path opacity="0.6" d="M131.15 233.698C131.15 235.533 129.662 237.021 127.827 237.021C125.991 237.021 124.503 235.533 124.503 233.698C124.503 231.862 125.991 230.374 127.827 230.374C129.662 230.374 131.15 231.862 131.15 233.698Z" fill="white"/>
</svg>
