<svg width="388" height="397" viewBox="0 0 388 397" fill="none" xmlns="http://www.w3.org/2000/svg">
<path fill-rule="evenodd" clip-rule="evenodd" d="M374.112 112.26C361.557 98.501 340.226 97.5244 326.467 110.079L288.853 144.4C275.094 156.954 274.117 178.285 286.672 192.044C299.226 205.804 320.557 206.78 334.317 194.226L371.931 159.905C385.69 147.351 386.666 126.019 374.112 112.26Z" fill="#E6A92C"/>
<path fill-rule="evenodd" clip-rule="evenodd" d="M14.0586 112.26C26.613 98.501 47.9444 97.5244 61.7035 110.079L99.3175 144.4C113.077 156.954 114.053 178.285 101.499 192.044C88.9444 205.804 67.613 206.78 53.8538 194.226L16.2399 159.905C2.48072 147.351 1.50413 126.019 14.0586 112.26Z" fill="#E6A92C"/>
<path fill-rule="evenodd" clip-rule="evenodd" d="M141.408 25.7955C146.001 25.03 150.345 28.1329 151.111 32.726L158.137 74.8827C158.902 79.4758 155.799 83.8199 151.206 84.5854C146.613 85.3509 142.269 82.248 141.503 77.6549L134.477 35.4982C133.712 30.9051 136.815 26.561 141.408 25.7955Z" fill="#E07F3A"/>
<circle cx="141.389" cy="24.2758" r="23.8888" fill="#E07F3A"/>
<path fill-rule="evenodd" clip-rule="evenodd" d="M248.167 25.7955C243.573 25.03 239.229 28.1329 238.464 32.726L231.438 74.8827C230.672 79.4758 233.775 83.8199 238.368 84.5854C242.961 85.3509 247.305 82.248 248.071 77.6549L255.097 35.4982C255.863 30.9051 252.76 26.561 248.167 25.7955Z" fill="#E07F3A"/>
<circle cx="248.185" cy="24.2758" r="23.8888" fill="#E07F3A"/>
<ellipse cx="194.787" cy="225.223" rx="158.79" ry="171.437" fill="#EFBA4C"/>
<path fill-rule="evenodd" clip-rule="evenodd" d="M51.4487 299.084C88.8608 274.2 139.298 258.948 194.787 258.948C250.276 258.948 300.713 274.2 338.125 299.083C312.567 356.794 257.989 396.66 194.787 396.66C131.585 396.66 77.0069 356.794 51.4487 299.084Z" fill="#F9E2AE"/>
<path fill-rule="evenodd" clip-rule="evenodd" d="M239.582 305.499C241.699 307.597 241.683 310.983 239.547 313.062C226.579 325.687 211.299 332.108 195.833 332.019C180.379 331.929 165.336 325.341 152.82 313.045C150.694 310.956 150.694 307.57 152.82 305.481C154.946 303.393 158.393 303.393 160.519 305.481C171.302 316.075 183.697 321.252 195.898 321.323C208.087 321.394 220.681 316.37 231.883 305.464C234.019 303.385 237.466 303.401 239.582 305.499Z" fill="#211000"/>
<circle cx="141.389" cy="225.222" r="21.0784" fill="#211000"/>
<ellipse cx="7.02612" cy="12.647" rx="7.02612" ry="12.647" transform="matrix(-0.913545 -0.406737 -0.406737 0.913545 140.625 289.863)" fill="#CE9B60"/>
<ellipse cx="263.322" cy="298.559" rx="7.02612" ry="12.647" transform="rotate(-24 263.322 298.559)" fill="#CE9B60"/>
<circle cx="250.996" cy="225.222" r="21.0784" fill="#211000"/>
</svg>
