<svg width="388" height="398" viewBox="0 0 388 398" fill="none" xmlns="http://www.w3.org/2000/svg">
<path fill-rule="evenodd" clip-rule="evenodd" d="M374.112 112.634C361.557 98.875 340.226 97.8985 326.467 110.453L288.853 144.774C275.094 157.328 274.117 178.659 286.672 192.419C299.226 206.178 320.557 207.154 334.317 194.6L371.931 160.279C385.69 147.725 386.666 126.393 374.112 112.634Z" fill="#E6A92C"/>
<path fill-rule="evenodd" clip-rule="evenodd" d="M14.0586 112.634C26.613 98.875 47.9444 97.8985 61.7035 110.453L99.3175 144.774C113.077 157.328 114.053 178.659 101.499 192.419C88.9444 206.178 67.613 207.154 53.8538 194.6L16.2399 160.279C2.48072 147.725 1.50413 126.393 14.0586 112.634Z" fill="#E6A92C"/>
<path fill-rule="evenodd" clip-rule="evenodd" d="M141.408 26.1693C146.001 25.4037 150.345 28.5066 151.111 33.0998L158.137 75.2565C158.902 79.8496 155.799 84.1937 151.206 84.9592C146.613 85.7247 142.269 82.6218 141.503 78.0287L134.477 35.872C133.712 31.2788 136.815 26.9348 141.408 26.1693Z" fill="#E07F3A"/>
<circle cx="141.389" cy="24.6495" r="23.8888" fill="#E07F3A"/>
<path fill-rule="evenodd" clip-rule="evenodd" d="M248.167 26.1693C243.573 25.4037 239.229 28.5066 238.464 33.0998L231.438 75.2565C230.672 79.8496 233.775 84.1937 238.368 84.9592C242.961 85.7247 247.305 82.6218 248.071 78.0287L255.097 35.872C255.863 31.2788 252.76 26.9348 248.167 26.1693Z" fill="#E07F3A"/>
<circle cx="248.185" cy="24.6495" r="23.8888" fill="#E07F3A"/>
<ellipse cx="194.787" cy="225.596" rx="158.79" ry="171.437" fill="#EFBA4C"/>
<path fill-rule="evenodd" clip-rule="evenodd" d="M51.4487 299.457C88.8608 274.574 139.298 259.322 194.787 259.322C250.276 259.322 300.713 274.574 338.125 299.457C312.567 357.168 257.989 397.034 194.787 397.034C131.585 397.034 77.0069 357.168 51.4487 299.457Z" fill="#F9E2AE"/>
<ellipse cx="7.02612" cy="12.647" rx="7.02612" ry="12.647" transform="matrix(-0.913545 -0.406737 -0.406737 0.913545 140.625 290.237)" fill="#CE9B60"/>
<ellipse cx="263.322" cy="298.933" rx="7.02612" ry="12.647" transform="rotate(-24 263.322 298.933)" fill="#CE9B60"/>
<circle cx="141.389" cy="225.222" r="21.0784" fill="#211000"/>
<circle cx="250.996" cy="225.222" r="21.0784" fill="#211000"/>
<path d="M170.575 232.587C146.407 236.38 131.574 236.198 102.265 230.242L121.684 262.121L148.521 261.772L170.575 232.587Z" fill="#EFBA4C"/>
<path d="M220.9 232.587C245.067 236.38 259.9 236.198 289.209 230.242L269.79 262.121L242.953 261.772L220.9 232.587Z" fill="#EFBA4C"/>
<path d="M276.118 149.754L272.787 142.11L277.928 139.921C280.198 138.946 282.029 138.077 283.421 137.316C284.812 136.554 285.863 135.734 286.574 134.857C287.291 133.935 287.755 132.857 287.965 131.623C288.249 129.947 287.868 128.476 286.821 127.209C285.819 125.95 284.455 125.174 282.728 124.88C281.319 124.641 279.786 124.721 278.129 125.12C276.524 125.482 274.667 126.369 272.557 127.78L270.526 129L266.118 121.922L267.547 120.94C269.952 119.171 272.539 117.841 275.309 116.95C278.124 116.068 281.19 115.908 284.507 116.472C287.461 116.973 289.969 118.035 292.032 119.656C294.094 121.276 295.559 123.249 296.426 125.574C297.339 127.907 297.575 130.374 297.133 132.976C296.796 134.96 296.114 136.773 295.087 138.413C294.105 140.061 292.605 141.598 290.586 143.025C288.575 144.407 285.912 145.769 282.598 147.112L276.118 149.754ZM275.406 164.264C273.77 163.986 272.458 163.174 271.471 161.827C270.485 160.479 270.126 159.012 270.396 157.424C270.673 155.793 271.5 154.504 272.876 153.558C274.253 152.613 275.759 152.279 277.395 152.557C279.076 152.842 280.41 153.659 281.397 155.006C282.384 156.353 282.739 157.843 282.461 159.474C282.192 161.062 281.369 162.328 279.992 163.274C278.616 164.22 277.087 164.55 275.406 164.264Z" fill="#E07F3A"/>
<path fill-rule="evenodd" clip-rule="evenodd" d="M167.76 329.511C167.76 325.759 170.802 322.717 174.554 322.717H213.617C217.369 322.717 220.41 325.759 220.41 329.511C220.41 333.263 217.369 336.304 213.617 336.304H174.554C170.802 336.304 167.76 333.263 167.76 329.511Z" fill="#211000"/>
</svg>
