<svg width="434" height="394" viewBox="0 0 434 394" fill="none" xmlns="http://www.w3.org/2000/svg">
<path fill-rule="evenodd" clip-rule="evenodd" d="M216.867 387.606C304.294 387.606 377.953 328.66 400.269 248.342L422.152 229.781C427.924 224.885 428.634 216.237 423.739 210.466C421.484 207.807 418.433 206.223 415.234 205.765C420.549 200.805 421.079 192.492 416.327 186.889C413.786 183.894 410.234 182.262 406.599 182.069C405.369 166.516 402.27 151.489 397.526 137.212C397.947 136.194 398.297 135.123 398.569 134.001L413.686 71.7177C419.323 48.492 397.231 28.1216 374.538 35.6199L335.577 48.4934C303.031 22.4913 261.764 6.9458 216.867 6.9458C171.79 6.9458 130.373 22.6162 97.7663 48.8067L57.8572 35.6199C35.1639 28.1216 13.0724 48.492 18.7094 71.7177L33.8259 134.001C34.2531 135.762 34.8737 137.399 35.6556 138.903C31.2232 152.673 28.3168 167.128 27.1357 182.069C23.5002 182.262 19.9488 183.894 17.408 186.889C12.6556 192.492 13.1858 200.805 18.5006 205.765C15.3015 206.223 12.2507 207.807 9.99588 210.466C5.10022 216.237 5.81042 224.885 11.5822 229.781L33.4655 248.342C55.7811 328.66 129.44 387.606 216.867 387.606Z" fill="white"/>
<path fill-rule="evenodd" clip-rule="evenodd" d="M405.622 251.786L426.09 234.425C434.427 227.353 435.453 214.862 428.381 206.525C427.176 205.104 425.811 203.895 424.335 202.902C426.863 196.358 425.826 188.675 420.969 182.949C418.566 180.116 415.532 178.127 412.253 177.013C410.849 163.316 408.037 150.033 403.963 137.312C404.157 136.698 404.332 136.073 404.486 135.437L419.603 73.1537C426.367 45.2828 399.857 20.8384 372.625 29.8364L336.766 41.6848C303.595 16.0861 262.001 0.854736 216.865 0.854736C171.547 0.854736 129.799 16.2092 96.563 41.9949L59.7658 29.8364C32.5339 20.8384 6.02397 45.2828 12.7884 73.1537L27.9049 135.437C28.2298 136.776 28.6445 138.065 29.1417 139.301C25.4047 151.416 22.8082 164.029 21.4771 177.013C18.1978 178.127 15.164 180.116 12.761 182.949C7.90419 188.675 6.8669 196.358 9.39461 202.902C7.9192 203.895 6.55431 205.104 5.34889 206.525C-1.72264 214.862 -0.696793 227.353 7.64021 234.425L28.1084 251.786C51.7358 333.743 127.291 393.696 216.865 393.696C306.439 393.696 381.994 333.743 405.622 251.786ZM33.4633 248.342L11.5799 229.78C5.80818 224.885 5.09798 216.237 9.99364 210.465C10.7355 209.591 11.5635 208.832 12.4547 208.192C14.272 206.886 16.3518 206.072 18.4983 205.764C16.8373 204.214 15.6436 202.337 14.9324 200.317C13.3681 195.873 14.1386 190.741 17.4057 186.889C19.9465 183.893 23.4979 182.261 27.1334 182.068C28.3145 167.128 31.2209 152.673 35.6533 138.902C34.8714 137.398 34.2509 135.761 33.8237 134.001L18.7071 71.7172C13.0701 48.4915 35.1617 28.1211 57.855 35.6194L97.7641 48.8062C130.371 22.6157 171.788 6.9453 216.865 6.9453C261.762 6.9453 303.028 22.4908 335.575 48.4929L374.536 35.6194C397.229 28.1211 419.321 48.4915 413.684 71.7172L398.567 134.001C398.295 135.122 397.945 136.193 397.524 137.212C402.268 151.488 405.367 166.515 406.597 182.068C410.232 182.261 413.783 183.893 416.324 186.889C419.591 190.741 420.362 195.873 418.798 200.317C418.086 202.337 416.893 204.214 415.232 205.764C417.378 206.072 419.458 206.886 421.275 208.192C422.166 208.832 422.995 209.591 423.736 210.465C428.632 216.237 427.922 224.885 422.15 229.78L400.267 248.342C377.951 328.659 304.292 387.606 216.865 387.606C129.438 387.606 55.7788 328.659 33.4633 248.342Z" fill="#E4E4E4"/>
<path d="M18.6989 71.7174C13.0619 48.4917 35.1535 28.1213 57.8468 35.6196L118.702 55.7276C134.133 60.8261 138.412 80.6235 126.465 91.6398L68.9816 144.645C57.0345 155.661 37.6483 149.793 33.8154 134.001L18.6989 71.7174Z" fill="white"/>
<path d="M37.2496 71.94C34.4311 60.3271 45.4769 50.1419 56.8236 53.8911L100.741 68.4021C111.762 72.0439 114.819 86.1849 106.285 94.0537L73.2773 124.49C64.7436 132.359 50.8964 128.168 48.1586 116.887L37.2496 71.94Z" fill="#FFB7E2"/>
<path d="M413.679 71.7174C419.316 48.4917 397.224 28.1213 374.531 35.6196L313.675 55.7276C298.245 60.8261 293.965 80.6235 305.912 91.6398L363.396 144.645C375.343 155.661 394.729 149.793 398.562 134.001L413.679 71.7174Z" fill="white"/>
<path d="M395.128 71.94C397.946 60.3271 386.901 50.1419 375.554 53.8911L331.637 68.4021C320.615 72.0439 317.559 86.1849 326.092 94.0537L359.1 124.49C367.634 132.359 381.481 128.168 384.219 116.887L395.128 71.94Z" fill="#FFB7E2"/>
<path d="M407.188 197.276C407.188 302.392 321.974 387.606 216.858 387.606C111.741 387.606 26.5277 302.392 26.5277 197.276C26.5277 92.1593 111.741 6.94556 216.858 6.94556C321.974 6.94556 407.188 92.1593 407.188 197.276Z" fill="white"/>
<path d="M225.217 328.388C221.739 332.24 215.67 331.877 212.448 327.809C204.961 318.357 200.905 311.311 197.774 302.896C196.048 298.259 198.761 293.18 203.56 291.979C214.694 289.193 223.142 289.103 233.891 291.933C238.522 293.151 241.091 298.043 239.629 302.603C236.291 313.02 232.445 320.381 225.217 328.388Z" fill="black"/>
<path fill-rule="evenodd" clip-rule="evenodd" d="M423.726 210.466C428.622 216.237 427.912 224.885 422.14 229.781L392.492 254.929C386.72 259.825 378.072 259.114 373.177 253.343C368.281 247.571 368.991 238.923 374.763 234.028L404.411 208.879C410.183 203.984 418.831 204.694 423.726 210.466Z" fill="white"/>
<path fill-rule="evenodd" clip-rule="evenodd" d="M416.313 186.889C421.209 192.661 420.498 201.309 414.727 206.205L385.078 231.353C379.307 236.248 370.659 235.538 365.763 229.766C360.868 223.995 361.578 215.347 367.35 210.451L396.998 185.303C402.77 180.408 411.417 181.118 416.313 186.889Z" fill="white"/>
<path fill-rule="evenodd" clip-rule="evenodd" d="M9.98289 210.466C5.08723 216.237 5.79744 224.885 11.5692 229.781L41.2176 254.929C46.9893 259.825 55.637 259.114 60.5326 253.343C65.4283 247.571 64.7181 238.923 58.9463 234.028L29.2979 208.879C23.5262 203.984 14.8785 204.694 9.98289 210.466Z" fill="white"/>
<path fill-rule="evenodd" clip-rule="evenodd" d="M17.3962 186.889C12.5005 192.661 13.2107 201.309 18.9825 206.205L48.6309 231.353C54.4026 236.248 63.0502 235.538 67.9459 229.766C72.8416 223.995 72.1314 215.347 66.3596 210.451L36.7112 185.303C30.9395 180.408 22.2918 181.118 17.3962 186.889Z" fill="white"/>
<path fill-rule="evenodd" clip-rule="evenodd" d="M341.669 260.582C342.026 263.08 340.291 265.393 337.793 265.75C313.764 269.183 294.001 286.828 283.311 309.468C276.804 323.247 268.214 338.265 257.605 349.971C247.033 361.636 233.941 370.563 218.468 370.858C202.844 371.155 189.439 362.566 178.521 351.071C167.57 339.54 158.58 324.536 151.704 310.663C140.14 287.333 119.449 269.205 94.423 265.753C91.9238 265.409 90.1773 263.103 90.522 260.604C90.8667 258.105 93.1721 256.358 95.6713 256.703C124.421 260.669 147.345 281.298 159.889 306.606C166.582 320.108 175.093 334.195 185.146 344.779C195.232 355.399 206.335 361.951 218.294 361.723C230.164 361.497 241.053 354.63 250.836 343.836C260.582 333.082 268.719 318.973 275.05 305.567C286.708 280.877 308.715 260.676 336.501 256.706C338.999 256.349 341.312 258.085 341.669 260.582Z" fill="#EEEEEE"/>
<path fill-rule="evenodd" clip-rule="evenodd" d="M109.034 197.955C125.208 177.57 148.283 179.954 161.395 187.618C164.763 189.587 165.897 193.913 163.929 197.281C161.96 200.649 157.634 201.783 154.266 199.814C145.485 194.682 130.759 193.302 120.101 206.736C117.676 209.792 113.233 210.303 110.177 207.879C107.121 205.454 106.61 201.011 109.034 197.955Z" fill="black"/>
<path fill-rule="evenodd" clip-rule="evenodd" d="M328.007 197.955C311.833 177.57 288.757 179.954 275.646 187.618C272.278 189.587 271.143 193.913 273.112 197.281C275.081 200.649 279.407 201.783 282.775 199.814C291.556 194.682 306.282 193.302 316.94 206.736C319.365 209.792 323.808 210.303 326.863 207.879C329.919 205.454 330.431 201.011 328.007 197.955Z" fill="black"/>
<ellipse cx="93.7637" cy="257.556" rx="17.8793" ry="10.8021" fill="#FF9E9E"/>
<ellipse cx="339.603" cy="257.556" rx="17.8793" ry="10.8021" fill="#FF9E9E"/>
</svg>
