<svg width="433" height="393" viewBox="0 0 433 393" fill="none" xmlns="http://www.w3.org/2000/svg">
<path fill-rule="evenodd" clip-rule="evenodd" d="M216.71 386.91C304.136 386.91 377.794 327.965 400.109 247.648L421.992 229.087C427.764 224.191 428.474 215.544 423.578 209.772C421.324 207.114 418.273 205.529 415.074 205.072C420.389 200.112 420.919 191.799 416.166 186.196C413.626 183.201 410.074 181.569 406.439 181.376C405.209 165.823 402.11 150.796 397.366 136.52C397.787 135.501 398.137 134.43 398.41 133.309L413.526 71.0263C419.163 47.801 397.072 27.4309 374.379 34.9291L335.418 47.8024C302.872 21.8007 261.606 6.25537 216.71 6.25537C171.634 6.25537 130.217 21.9256 97.6108 48.1156L57.7023 34.9291C35.0093 27.4309 12.918 47.801 18.555 71.0263L33.6713 133.309C34.0985 135.069 34.719 136.706 35.5009 138.21C31.0686 151.981 28.1623 166.436 26.9812 181.376C23.3457 181.569 19.7944 183.201 17.2536 186.196C12.5013 191.799 13.0315 200.112 18.3462 205.072C15.1471 205.529 12.0964 207.114 9.84163 209.772C4.94603 215.544 5.65623 224.191 11.4279 229.087L33.3109 247.648C55.6262 327.965 129.284 386.91 216.71 386.91Z" fill="white"/>
<path fill-rule="evenodd" clip-rule="evenodd" d="M405.468 251.093L425.936 233.731C434.273 226.66 435.299 214.169 428.227 205.832C427.022 204.411 425.657 203.202 424.182 202.209C426.709 195.665 425.672 187.982 420.815 182.256C418.412 179.423 415.379 177.434 412.099 176.32C410.695 162.623 407.883 149.34 403.809 136.619C404.004 136.006 404.178 135.381 404.333 134.745L419.449 72.4625C426.213 44.592 399.704 20.1479 372.472 29.1458L336.614 40.994C303.443 15.3957 261.85 0.164551 216.714 0.164551C171.397 0.164551 129.65 15.5188 96.4142 41.3041L59.6175 29.1458C32.3859 20.1479 5.87642 44.592 12.6407 72.4625L27.7571 134.745C28.082 136.084 28.4967 137.373 28.9938 138.609C25.2568 150.723 22.6604 163.336 21.3293 176.32C18.05 177.434 15.0163 179.423 12.6133 182.256C7.75658 187.982 6.71931 195.665 9.24699 202.209C7.77159 203.202 6.40672 204.411 5.20134 205.832C-1.8701 214.169 -0.844254 226.66 7.4926 233.731L27.9606 251.093C51.5875 333.048 127.142 393 216.714 393C306.287 393 381.841 333.048 405.468 251.093ZM33.3153 247.648L11.4323 229.087C5.66063 224.191 4.95042 215.544 9.84602 209.772C10.5879 208.897 11.4159 208.139 12.307 207.499C14.1243 206.193 16.2041 205.378 18.3506 205.071C16.6896 203.521 15.4959 201.644 14.7848 199.624C13.2204 195.18 13.9909 190.048 17.258 186.196C19.7988 183.2 23.3501 181.568 26.9855 181.376C28.1666 166.435 31.073 151.98 35.5053 138.21C34.7234 136.706 34.1029 135.069 33.6757 133.309L18.5593 71.026C12.9224 47.8006 35.0137 27.4305 57.7067 34.9287L97.6152 48.1153C130.221 21.9252 171.638 6.25503 216.714 6.25503C261.611 6.25503 302.877 21.8003 335.423 47.802L374.383 34.9287C397.076 27.4305 419.167 47.8006 413.53 71.026L398.414 133.309C398.142 134.43 397.791 135.501 397.371 136.52C402.115 150.796 405.214 165.823 406.443 181.376C410.079 181.568 413.63 183.2 416.171 186.196C419.438 190.048 420.208 195.18 418.644 199.624C417.933 201.644 416.739 203.521 415.078 205.071C417.225 205.378 419.304 206.193 421.122 207.499C422.013 208.139 422.841 208.897 423.583 209.772C428.478 215.544 427.768 224.191 421.997 229.087L400.114 247.648C377.798 327.964 304.14 386.91 216.714 386.91C129.289 386.91 55.6305 327.964 33.3153 247.648Z" fill="#E4E4E4"/>
<path d="M18.5581 71.0257C12.9212 47.8003 35.0125 27.4302 57.7054 34.9284L118.56 55.0361C133.99 60.1345 138.27 79.9316 126.323 90.9478L68.8401 143.952C56.8931 154.968 37.5073 149.101 33.6745 133.308L18.5581 71.0257Z" fill="white"/>
<path d="M37.1086 71.2483C34.2901 59.6356 45.3358 49.4505 56.6822 53.1996L100.599 67.7105C111.62 71.3522 114.677 85.493 106.143 93.3617L73.1357 123.798C64.6022 131.666 50.7552 127.475 48.0174 116.195L37.1086 71.2483Z" fill="#FFB7E2"/>
<path d="M413.526 71.0257C419.163 47.8003 397.072 27.4302 374.379 34.9284L313.524 55.0361C298.094 60.1345 293.815 79.9316 305.761 90.9478L363.244 143.952C375.191 154.968 394.577 149.101 398.41 133.308L413.526 71.0257Z" fill="white"/>
<path d="M394.976 71.2483C397.794 59.6356 386.748 49.4505 375.402 53.1996L331.486 67.7105C320.464 71.3522 317.407 85.493 325.941 93.3617L358.948 123.798C367.482 131.666 381.329 127.475 384.067 116.195L394.976 71.2483Z" fill="#FFB7E2"/>
<circle cx="216.715" cy="196.583" r="190.327" fill="white"/>
<ellipse cx="304.042" cy="203.581" rx="25.8145" ry="25.8145" fill="black"/>
<ellipse cx="135.467" cy="203.581" rx="25.8145" ry="25.8145" fill="black"/>
<path d="M220.63 332.284C219.41 333.474 217.433 333.358 216.337 332.053C204.32 317.744 199.646 309.226 195.709 296.546C195.228 294.994 196.109 293.35 197.664 292.88C213.805 288.007 223.761 287.825 239.208 292.856C240.703 293.342 241.542 294.931 241.115 296.445C236.717 312.058 232.265 320.944 220.63 332.284Z" fill="black"/>
<path fill-rule="evenodd" clip-rule="evenodd" d="M423.577 209.772C428.473 215.544 427.762 224.191 421.991 229.087L392.343 254.235C386.571 259.13 377.924 258.42 373.028 252.649C368.132 246.877 368.843 238.229 374.614 233.334L404.262 208.186C410.034 203.29 418.681 204.001 423.577 209.772Z" fill="white"/>
<path fill-rule="evenodd" clip-rule="evenodd" d="M416.163 186.196C421.058 191.968 420.348 200.615 414.576 205.511L384.928 230.659C379.157 235.554 370.509 234.844 365.614 229.072C360.718 223.301 361.428 214.653 367.2 209.758L396.848 184.61C402.62 179.714 411.267 180.424 416.163 186.196Z" fill="white"/>
<path fill-rule="evenodd" clip-rule="evenodd" d="M9.83823 209.772C4.94264 215.544 5.65283 224.191 11.4245 229.087L41.0725 254.235C46.8441 259.13 55.4916 258.42 60.3872 252.649C65.2828 246.877 64.5726 238.229 58.801 233.334L29.153 208.186C23.3813 203.29 14.7338 204.001 9.83823 209.772Z" fill="white"/>
<path fill-rule="evenodd" clip-rule="evenodd" d="M17.2525 186.196C12.3569 191.968 13.0671 200.615 18.8388 205.511L48.4868 230.659C54.2584 235.554 62.906 234.844 67.8015 229.072C72.6971 223.301 71.9869 214.653 66.2153 209.758L36.5673 184.61C30.7956 179.714 22.1481 180.424 17.2525 186.196Z" fill="white"/>
<path fill-rule="evenodd" clip-rule="evenodd" d="M341.522 259.887C341.879 262.384 340.143 264.698 337.646 265.055C313.618 268.488 293.855 286.133 283.165 308.772C276.658 322.551 268.068 337.569 257.459 349.274C246.887 360.94 233.795 369.866 218.323 370.161C202.699 370.458 189.294 361.87 178.377 350.374C167.425 338.843 158.436 323.84 151.559 309.967C139.995 286.638 119.305 268.51 94.2794 265.058C91.7803 264.713 90.0338 262.408 90.3785 259.909C90.7232 257.41 93.0286 255.663 95.5277 256.008C124.277 259.973 147.201 280.603 159.745 305.91C166.437 319.412 174.949 333.499 185.001 344.083C195.087 354.703 206.189 361.255 218.149 361.027C230.019 360.801 240.907 353.934 250.69 343.139C260.436 332.385 268.573 318.277 274.904 304.871C286.562 280.181 308.569 259.98 336.354 256.011C338.851 255.654 341.165 257.39 341.522 259.887Z" fill="#EEEEEE"/>
</svg>
