<svg width="433" height="394" viewBox="0 0 433 394" fill="none" xmlns="http://www.w3.org/2000/svg">
<path fill-rule="evenodd" clip-rule="evenodd" d="M216.71 387.139C304.136 387.139 377.794 328.193 400.109 247.877L421.992 229.316C427.764 224.42 428.474 215.772 423.578 210.001C421.324 207.343 418.273 205.758 415.074 205.3C420.389 200.34 420.919 192.027 416.166 186.425C413.626 183.429 410.074 181.797 406.439 181.604C405.209 166.052 402.11 151.025 397.366 136.749C397.787 135.73 398.137 134.659 398.41 133.537L413.526 71.2548C419.163 48.0295 397.072 27.6594 374.379 35.1576L335.418 48.0309C302.872 22.0292 261.606 6.48389 216.71 6.48389C171.634 6.48389 130.217 22.1541 97.6108 48.3441L57.7023 35.1576C35.0093 27.6594 12.918 48.0295 18.555 71.2548L33.6713 133.537C34.0985 135.298 34.719 136.935 35.5009 138.439C31.0686 152.209 28.1623 166.664 26.9812 181.604C23.3457 181.797 19.7944 183.429 17.2536 186.425C12.5013 192.027 13.0315 200.34 18.3462 205.3C15.1471 205.758 12.0964 207.343 9.84163 210.001C4.94603 215.772 5.65623 224.42 11.4279 229.316L33.3109 247.877C55.6262 328.193 129.284 387.139 216.71 387.139Z" fill="white"/>
<path fill-rule="evenodd" clip-rule="evenodd" d="M405.468 251.321L425.936 233.96C434.273 226.888 435.299 214.398 428.227 206.061C427.022 204.64 425.657 203.43 424.182 202.437C426.709 195.894 425.672 188.211 420.815 182.485C418.412 179.652 415.379 177.662 412.099 176.549C410.695 162.852 407.883 149.569 403.809 136.848C404.004 136.234 404.178 135.609 404.333 134.974L419.449 72.691C426.213 44.8205 399.704 20.3764 372.472 29.3743L336.614 41.2226C303.443 15.6242 261.85 0.393066 216.714 0.393066C171.397 0.393066 129.65 15.7473 96.4142 41.5326L59.6175 29.3743C32.3859 20.3764 5.87642 44.8205 12.6407 72.691L27.7571 134.974C28.082 136.312 28.4967 137.602 28.9938 138.838C25.2568 150.952 22.6604 163.564 21.3293 176.549C18.05 177.662 15.0163 179.652 12.6133 182.485C7.75658 188.211 6.71931 195.894 9.24699 202.437C7.77159 203.43 6.40672 204.64 5.20134 206.061C-1.8701 214.398 -0.844254 226.889 7.4926 233.96L27.9606 251.321C51.5875 333.277 127.142 393.229 216.714 393.229C306.287 393.229 381.841 333.277 405.468 251.321ZM33.3153 247.877L11.4323 229.315C5.66063 224.42 4.95042 215.772 9.84602 210C10.5879 209.126 11.4159 208.367 12.307 207.727C14.1243 206.421 16.2041 205.607 18.3506 205.3C16.6896 203.75 15.4959 201.872 14.7848 199.852C13.2204 195.409 13.9909 190.276 17.258 186.424C19.7988 183.429 23.3501 181.797 26.9855 181.604C28.1666 166.664 31.073 152.209 35.5053 138.439C34.7234 136.935 34.1029 135.298 33.6757 133.537L18.5593 71.2545C12.9224 48.0291 35.0137 27.659 57.7067 35.1572L97.6152 48.3438C130.221 22.1537 171.638 6.48354 216.714 6.48354C261.611 6.48354 302.877 22.0288 335.423 48.0305L374.383 35.1572C397.076 27.659 419.167 48.0291 413.53 71.2545L398.414 133.537C398.142 134.658 397.791 135.73 397.371 136.748C402.115 151.024 405.214 166.051 406.443 181.604C410.079 181.797 413.63 183.429 416.171 186.424C419.438 190.276 420.208 195.409 418.644 199.852C417.933 201.872 416.739 203.75 415.078 205.3C417.225 205.607 419.304 206.421 421.122 207.727C422.013 208.367 422.841 209.126 423.583 210C428.478 215.772 427.768 224.42 421.997 229.315L400.114 247.877C377.798 328.193 304.14 387.138 216.714 387.138C129.289 387.138 55.6305 328.193 33.3153 247.877Z" fill="#E4E4E4"/>
<path d="M18.5581 71.2542C12.9212 48.0288 35.0125 27.6587 57.7054 35.1569L118.56 55.2646C133.99 60.363 138.27 80.1602 126.323 91.1763L68.8401 144.18C56.8931 155.197 37.5073 149.329 33.6745 133.537L18.5581 71.2542Z" fill="white"/>
<path d="M37.1086 71.4768C34.2901 59.8641 45.3358 49.679 56.6822 53.4281L100.599 67.939C111.62 71.5807 114.677 85.7215 106.143 93.5902L73.1357 124.026C64.6022 131.895 50.7552 127.704 48.0174 116.424L37.1086 71.4768Z" fill="#FFB7E2"/>
<path d="M413.526 71.2542C419.163 48.0288 397.072 27.6587 374.379 35.1569L313.524 55.2646C298.094 60.363 293.815 80.1602 305.761 91.1763L363.244 144.18C375.191 155.197 394.577 149.329 398.41 133.537L413.526 71.2542Z" fill="white"/>
<path d="M394.976 71.4768C397.794 59.8641 386.748 49.679 375.402 53.4281L331.486 67.939C320.464 71.5807 317.407 85.7215 325.941 93.5902L358.948 124.026C367.482 131.895 381.329 127.704 384.067 116.424L394.976 71.4768Z" fill="#FFB7E2"/>
<circle cx="216.715" cy="196.811" r="190.327" fill="white"/>
<ellipse cx="304.042" cy="203.81" rx="25.8145" ry="25.8145" fill="black"/>
<ellipse cx="135.467" cy="203.81" rx="25.8145" ry="25.8145" fill="black"/>
<path d="M220.63 332.513C219.41 333.702 217.433 333.586 216.337 332.281C204.32 317.972 199.646 309.454 195.709 296.774C195.228 295.222 196.109 293.578 197.664 293.109C213.805 288.235 223.761 288.054 239.208 293.084C240.703 293.571 241.542 295.16 241.115 296.673C236.717 312.286 232.265 321.172 220.63 332.513Z" fill="black"/>
<path fill-rule="evenodd" clip-rule="evenodd" d="M423.577 210.001C428.473 215.773 427.762 224.42 421.991 229.316L392.343 254.464C386.571 259.359 377.924 258.649 373.028 252.877C368.132 247.106 368.843 238.458 374.614 233.563L404.262 208.415C410.034 203.519 418.681 204.229 423.577 210.001Z" fill="white"/>
<path fill-rule="evenodd" clip-rule="evenodd" d="M416.163 186.425C421.058 192.196 420.348 200.844 414.576 205.739L384.928 230.887C379.157 235.783 370.509 235.073 365.614 229.301C360.718 223.529 361.428 214.882 367.2 209.986L396.848 184.838C402.62 179.943 411.267 180.653 416.163 186.425Z" fill="white"/>
<path fill-rule="evenodd" clip-rule="evenodd" d="M9.83823 210.001C4.94264 215.773 5.65283 224.42 11.4245 229.316L41.0725 254.464C46.8441 259.359 55.4916 258.649 60.3872 252.877C65.2828 247.106 64.5726 238.458 58.801 233.563L29.153 208.415C23.3813 203.519 14.7338 204.229 9.83823 210.001Z" fill="white"/>
<path fill-rule="evenodd" clip-rule="evenodd" d="M17.2525 186.425C12.3569 192.196 13.0671 200.844 18.8388 205.739L48.4868 230.887C54.2584 235.783 62.906 235.073 67.8015 229.301C72.6971 223.529 71.9869 214.882 66.2153 209.986L36.5673 184.838C30.7956 179.943 22.1481 180.653 17.2525 186.425Z" fill="white"/>
<path fill-rule="evenodd" clip-rule="evenodd" d="M341.522 260.116C341.879 262.613 340.143 264.927 337.646 265.284C313.618 268.716 293.855 286.361 283.165 309C276.658 322.78 268.068 337.797 257.459 349.503C246.887 361.168 233.795 370.095 218.323 370.389C202.699 370.687 189.294 362.098 178.377 350.603C167.425 339.072 158.436 324.069 151.559 310.196C139.995 286.866 119.305 268.738 94.2794 265.287C91.7803 264.942 90.0338 262.637 90.3785 260.137C90.7232 257.638 93.0286 255.892 95.5277 256.237C124.277 260.202 147.201 280.831 159.745 306.139C166.437 319.64 174.949 333.728 185.001 344.312C195.087 354.931 206.189 361.483 218.149 361.255C230.019 361.029 240.907 354.162 250.69 343.368C260.436 332.614 268.573 318.506 274.904 305.099C286.562 280.41 308.569 260.209 336.354 256.24C338.851 255.883 341.165 257.618 341.522 260.116Z" fill="#EEEEEE"/>
<path d="M101.553 183.845L95.3281 205.23L114.521 197.928L144.089 181.237L156.02 169.763L138.383 163.504L120.746 169.763L101.553 183.845Z" fill="white"/>
<path fill-rule="evenodd" clip-rule="evenodd" d="M162.437 173.299C163.646 175.163 163.116 177.654 161.253 178.864C150.922 185.57 123.506 200.105 95.7103 204.934C93.5212 205.315 91.4383 203.849 91.058 201.66C90.6776 199.47 92.1439 197.388 94.3329 197.007C120.687 192.428 147.071 178.476 156.872 172.115C158.735 170.905 161.227 171.435 162.437 173.299Z" fill="#E4E4E4"/>
<path d="M334.609 183.845L340.834 205.23L321.641 197.928L292.073 181.237L280.142 169.763L297.779 163.504L315.416 169.763L334.609 183.845Z" fill="white"/>
<path fill-rule="evenodd" clip-rule="evenodd" d="M273.725 173.299C272.516 175.163 273.046 177.654 274.91 178.864C285.24 185.57 312.656 200.105 340.452 204.934C342.641 205.315 344.724 203.849 345.104 201.66C345.484 199.47 344.018 197.388 341.829 197.007C315.475 192.428 289.091 178.476 279.29 172.115C277.427 170.905 274.935 171.435 273.725 173.299Z" fill="#E4E4E4"/>
<path opacity="0.6" d="M148.432 218.506C148.432 222.696 143.337 226.093 137.052 226.093C130.767 226.093 125.672 222.696 125.672 218.506C125.672 214.316 130.767 210.92 137.052 210.92C143.337 210.92 148.432 214.316 148.432 218.506Z" fill="white"/>
<path opacity="0.6" d="M121.879 214.713C121.879 216.808 120.181 218.506 118.086 218.506C115.991 218.506 114.293 216.808 114.293 214.713C114.293 212.618 115.991 210.92 118.086 210.92C120.181 210.92 121.879 212.618 121.879 214.713Z" fill="white"/>
<path opacity="0.6" d="M288.782 218.506C288.782 222.696 293.877 226.093 300.162 226.093C306.447 226.093 311.542 222.696 311.542 218.506C311.542 214.316 306.447 210.92 300.162 210.92C293.877 210.92 288.782 214.316 288.782 218.506Z" fill="white"/>
<path opacity="0.6" d="M315.335 214.713C315.335 216.808 317.033 218.506 319.128 218.506C321.223 218.506 322.921 216.808 322.921 214.713C322.921 212.618 321.223 210.92 319.128 210.92C317.033 210.92 315.335 212.618 315.335 214.713Z" fill="white"/>
</svg>
